<svg width="35" height="35" viewBox="0 0 35 35" fill="none" xmlns="http://www.w3.org/2000/svg">
<path d="M8.42188 13.234C7.88715 12.5292 7.45549 11.7636 7.12688 10.9372C6.79826 10.1108 6.63445 9.24794 6.63542 8.34863V7.83822C6.63542 7.66808 6.64757 7.49794 6.67188 7.3278C6.72049 6.91461 6.87264 6.56217 7.12833 6.27051C7.38403 5.97884 7.71799 5.83301 8.13021 5.83301C8.56771 5.83301 8.93229 5.97884 9.22396 6.27051C9.51563 6.56217 9.63715 6.91461 9.58854 7.3278C9.56424 7.47363 9.54576 7.62579 9.53313 7.78426C9.52049 7.94273 9.51465 8.0944 9.51563 8.23926C9.51563 8.99273 9.69792 9.69759 10.0625 10.3538C10.4271 11.0101 10.8403 11.642 11.3021 12.2497C11.8125 12.9545 12.2378 13.6959 12.5781 14.4736C12.9184 15.2514 13.0885 16.0656 13.0885 16.9163V17.4632C13.0642 17.8764 12.9184 18.2288 12.651 18.5205C12.3837 18.8122 12.0434 18.958 11.6302 18.958C11.217 18.958 10.8583 18.8185 10.554 18.5395C10.2497 18.2604 10.1223 17.9138 10.1719 17.4997C10.1962 17.3781 10.2083 17.2688 10.2083 17.1715V16.8434C10.2083 16.1386 10.0139 15.5008 9.625 14.9301C9.23611 14.3594 8.83507 13.794 8.42188 13.234ZM14.2552 13.234C13.7205 12.5292 13.2888 11.7636 12.9602 10.9372C12.6316 10.1108 12.4678 9.24794 12.4688 8.34863V7.83822C12.4688 7.66808 12.4809 7.49794 12.5052 7.3278C12.5538 6.91461 12.706 6.56217 12.9617 6.27051C13.2174 5.97884 13.5513 5.83301 13.9635 5.83301C14.401 5.83301 14.7656 5.97884 15.0573 6.27051C15.349 6.56217 15.4705 6.91461 15.4219 7.3278C15.3976 7.47363 15.3796 7.62579 15.3679 7.78426C15.3563 7.94273 15.3499 8.0944 15.349 8.23926C15.349 8.99273 15.5313 9.69759 15.8958 10.3538C16.2604 11.0101 16.6736 11.642 17.1354 12.2497C17.6458 12.9545 18.0712 13.6959 18.4115 14.4736C18.7517 15.2514 18.9219 16.0656 18.9219 16.9163V17.4632C18.8976 17.8764 18.7517 18.2288 18.4844 18.5205C18.217 18.8122 17.8767 18.958 17.4635 18.958C17.0503 18.958 16.6921 18.8185 16.3888 18.5395C16.0854 18.2604 15.9576 17.9138 16.0052 17.4997C16.0295 17.3781 16.0417 17.2688 16.0417 17.1715V16.8434C16.0417 16.1386 15.8472 15.5008 15.4583 14.9301C15.0694 14.3594 14.6684 13.794 14.2552 13.234ZM20.0885 13.234C19.5538 12.5292 19.1222 11.7636 18.7935 10.9372C18.4649 10.1108 18.3011 9.24794 18.3021 8.34863V7.83822C18.3021 7.66808 18.3142 7.49794 18.3385 7.3278C18.3872 6.91461 18.5393 6.56217 18.795 6.27051C19.0507 5.97884 19.3847 5.83301 19.7969 5.83301C20.2344 5.83301 20.599 5.97884 20.8906 6.27051C21.1823 6.56217 21.3038 6.91461 21.2552 7.3278C21.2309 7.47363 21.2129 7.62579 21.2013 7.78426C21.1896 7.94273 21.1833 8.0944 21.1823 8.23926C21.1823 8.99273 21.3646 9.69759 21.7292 10.3538C22.0937 11.0101 22.5069 11.642 22.9688 12.2497C23.4792 12.9545 23.9045 13.6959 24.2448 14.4736C24.5851 15.2514 24.7552 16.0656 24.7552 16.9163V17.4632C24.7309 17.8764 24.5851 18.2288 24.3177 18.5205C24.0503 18.8122 23.7101 18.958 23.2969 18.958C22.8837 18.958 22.5254 18.8185 22.2221 18.5395C21.9188 18.2604 21.7909 17.9138 21.8385 17.4997C21.8628 17.3781 21.875 17.2688 21.875 17.1715V16.8434C21.875 16.1386 21.6806 15.5008 21.2917 14.9301C20.9028 14.3594 20.5017 13.794 20.0885 13.234ZM17.5 29.1663C13.8785 29.1663 10.7853 28.4552 8.22063 27.0328C5.6559 25.6104 4.37403 23.8911 4.375 21.8747C4.375 20.8295 4.75174 19.8393 5.50521 18.9041C6.25868 17.9688 7.34028 17.1482 8.75 16.4424V19.833C8.26389 20.1733 7.89931 20.5199 7.65625 20.8728C7.4132 21.2257 7.29167 21.5597 7.29167 21.8747C7.29167 22.9684 8.34896 23.9713 10.4635 24.8832C12.5781 25.7952 14.9236 26.2506 17.5 26.2497C20.0764 26.2487 22.4219 25.7932 24.5365 24.8832C26.651 23.9732 27.7083 22.9704 27.7083 21.8747C27.7083 21.5587 27.5868 21.2247 27.3438 20.8728C27.1007 20.5209 26.7361 20.1743 26.25 19.833V16.4424C27.6597 17.1472 28.7413 17.9678 29.4948 18.9041C30.2483 19.8403 30.625 20.8305 30.625 21.8747C30.625 23.892 29.349 25.6119 26.7969 27.0343C24.2448 28.4566 21.1458 29.1673 17.5 29.1663Z" fill="#5F9A01"/>
</svg>
