<svg width="35" height="35" viewBox="0 0 35 35" fill="none" xmlns="http://www.w3.org/2000/svg">
<g clip-path="url(#clip0_2988_1624)">
<path d="M34.2044 0.795333C34.9335 1.65708 35.033 2.8834 34.5027 4.47431C33.9724 6.06522 33.0775 7.49041 31.818 8.74988L27.8159 12.752L31.7931 30.0531C31.876 30.368 31.7766 30.6414 31.4948 30.8735L28.313 33.2598C28.197 33.3593 28.0396 33.409 27.8407 33.409C27.7744 33.409 27.7164 33.4007 27.6667 33.3841C27.4181 33.3344 27.2441 33.2018 27.1447 32.9864L20.2093 20.3585L13.7711 26.7968L15.0886 31.6192C15.1715 31.9009 15.1052 32.1578 14.8897 32.3898L12.5034 34.7762C12.3542 34.9253 12.1636 34.9999 11.9316 34.9999H11.8819C11.6333 34.9667 11.4345 34.859 11.2853 34.6767L6.58718 28.4125L0.322972 23.7144C0.14068 23.5984 0.0329623 23.4078 -0.000181592 23.1426C-0.0167536 22.9272 0.0578203 22.72 0.22354 22.5212L2.6099 20.11C2.75905 19.9608 2.94963 19.8862 3.18164 19.8862C3.28107 19.8862 3.34736 19.8945 3.3805 19.9111L8.20294 21.2286L14.6412 14.7904L2.01331 7.85499C1.78131 7.72242 1.64044 7.52355 1.59073 7.2584C1.55758 6.99325 1.63216 6.76953 1.81445 6.58724L4.99627 3.40542C5.22827 3.18998 5.47685 3.12369 5.74201 3.20655L22.2725 7.15897L26.2498 3.1817C27.5093 1.92223 28.9345 1.02734 30.5254 0.497038C32.1163 -0.0332654 33.3426 0.0661664 34.2044 0.795333Z" fill="#5F9A01"/>
</g>
<defs>
<clipPath id="clip0_2988_1624">
<rect width="35" height="35" fill="white"/>
</clipPath>
</defs>
</svg>
