<svg width="35" height="35" viewBox="0 0 35 35" fill="none" xmlns="http://www.w3.org/2000/svg">
<path d="M19.6873 8.02083C21.2769 8.02083 22.6039 6.67917 22.6039 5.10417C22.6039 4.33062 22.2966 3.58875 21.7497 3.04177C21.2027 2.49479 20.4608 2.1875 19.6873 2.1875C18.0685 2.1875 16.7706 3.47083 16.7706 5.10417C16.7706 6.67917 18.0685 8.02083 19.6873 8.02083ZM14.4227 28.2625L15.881 21.875L18.9581 24.7917V33.5417H21.8748V22.6042L18.7977 19.6875L19.6873 15.3125C20.6865 16.4575 21.9193 17.3753 23.3028 18.0041C24.6863 18.633 26.1884 18.9583 27.7081 18.9583V16.0417C24.9227 16.0417 22.6039 14.5833 21.4227 12.5125L19.9644 10.2083C19.381 9.30417 18.506 8.75 17.4998 8.75C17.0477 8.75 16.7706 8.86667 16.3185 8.86667L8.74977 12.075V18.9583H11.6664V13.9708L14.2769 12.95L11.9435 24.7917L4.79769 23.3333L4.21436 26.25L14.4227 28.2625Z" fill="#5F9A01"/>
</svg>
