<svg width="35" height="35" viewBox="0 0 35 35" fill="none" xmlns="http://www.w3.org/2000/svg">
<path d="M20.7594 27.7083C22.0208 27.7083 22.6873 29.2016 21.8458 30.1408C21.2987 30.7519 20.6289 31.2408 19.8801 31.5755C19.1312 31.9102 18.3202 32.0832 17.5 32.0833C16.6798 32.0832 15.8688 31.9102 15.1199 31.5755C14.3711 31.2408 13.7013 30.7519 13.1542 30.1408C12.3492 29.2425 12.9237 27.8381 14.0788 27.7185L14.2392 27.7097L20.7594 27.7083ZM17.5 2.91663C19.4804 2.91663 21.1546 4.2335 21.6927 6.03892L21.7598 6.28829L21.7715 6.351C23.3793 7.25766 24.7495 8.53247 25.7695 10.0709C26.7896 11.6094 27.4305 13.3676 27.6398 15.2016L27.6806 15.6202L27.7083 16.0416V20.316L27.739 20.5143C27.9386 21.5889 28.5333 22.5497 29.4058 23.2079L29.6494 23.3785L29.8856 23.5229C31.1398 24.2331 30.7023 26.0983 29.3358 26.2412L29.1667 26.25H5.83333C4.33417 26.25 3.81063 24.2608 5.11437 23.5229C5.67004 23.2084 6.15015 22.7761 6.521 22.2564C6.89184 21.7367 7.14443 21.1421 7.26104 20.5143L7.29167 20.3058L7.29312 15.9745C7.38204 14.0698 7.93648 12.2158 8.90792 10.575C9.87935 8.93418 11.2382 7.55647 12.8654 6.56246L13.2271 6.34954L13.2417 6.28683C13.4474 5.4145 13.916 4.62639 14.5843 4.02911C15.2525 3.43182 16.0881 3.05418 16.9779 2.94725L17.2433 2.92246L17.5 2.91663Z" fill="#5F9A01"/>
</svg>
