<svg width="35" height="35" viewBox="0 0 35 35" fill="none" xmlns="http://www.w3.org/2000/svg">
<g clip-path="url(#clip0_2194_299)">
<path fill-rule="evenodd" clip-rule="evenodd" d="M5 15C5 12.3478 6.05357 9.8043 7.92893 7.92893C9.8043 6.05357 12.3478 5 15 5C17.6522 5 20.1957 6.05357 22.0711 7.92893C23.9464 9.8043 25 12.3478 25 15C25 17.6522 23.9464 20.1957 22.0711 22.0711C20.1957 23.9464 17.6522 25 15 25C12.3478 25 9.8043 23.9464 7.92893 22.0711C6.05357 20.1957 5 17.6522 5 15ZM15 2.83654e-07C12.6393 -0.000300974 10.3118 0.556606 8.20685 1.62543C6.10193 2.69425 4.279 4.24481 2.88631 6.15099C1.49363 8.05717 0.570531 10.2652 0.192083 12.5954C-0.186365 14.9256 -0.00947121 17.3122 0.708376 19.5612C1.42622 21.8101 2.66476 23.8579 4.32324 25.5379C5.98173 27.218 8.01333 28.4828 10.2528 29.2296C12.4923 29.9765 14.8765 30.1841 17.2114 29.8358C19.5463 29.4875 21.766 28.593 23.69 27.225L30.7325 34.2675C31.204 34.7229 31.8355 34.9749 32.491 34.9692C33.1465 34.9635 33.7735 34.7006 34.237 34.237C34.7006 33.7735 34.9635 33.1465 34.9692 32.491C34.9749 31.8355 34.7229 31.204 34.2675 30.7325L27.2275 23.6925C28.8232 21.4484 29.7704 18.8084 29.9653 16.0617C30.1602 13.315 29.5953 10.5677 28.3324 8.12075C27.0696 5.67382 25.1576 3.62172 22.8059 2.18931C20.4542 0.756901 17.7536 -0.000535127 15 2.83654e-07Z" fill="#5F9A01"/>
</g>
<defs>
<clipPath id="clip0_2194_299">
<rect width="35" height="35" fill="white"/>
</clipPath>
</defs>
</svg>
