<svg width="35" height="35" viewBox="0 0 35 35" fill="none" xmlns="http://www.w3.org/2000/svg">
<path d="M30.0507 5.50751L30.0507 5.50773C30.6585 15.8383 27.536 23.9367 21.8897 27.3507L21.8871 27.3523C20.0879 28.4554 18.0175 29.0367 15.9071 29.0313H15.9059C15.7606 29.0313 15.6148 29.0287 15.4685 29.0234L15.4682 29.0234C13.6109 28.9578 11.7277 28.468 9.84957 27.5595L9.52961 27.4047L9.27828 27.6561L6.98288 29.9515C6.98285 29.9515 6.98281 29.9515 6.98277 29.9516C6.92507 30.0092 6.85611 30.0543 6.7802 30.0841C6.70424 30.114 6.62294 30.1278 6.54139 30.1248C6.45983 30.1218 6.37976 30.1021 6.3062 30.0667C6.23423 30.0322 6.16999 29.9835 6.11729 29.9236C6.02017 29.804 5.97092 29.6525 5.97924 29.4985C5.98766 29.3427 6.05439 29.1958 6.16617 29.087L6.1662 29.087L6.17094 29.0823L8.11099 27.1423L8.11361 27.1396L20.8108 14.2511C20.8113 14.2506 20.8117 14.2501 20.8122 14.2496C20.9596 14.1019 21.0765 13.9266 21.1564 13.7338C21.2365 13.5404 21.2778 13.333 21.2778 13.1237C21.2778 12.9143 21.2365 12.707 21.1564 12.5135C21.0763 12.3201 20.9588 12.1443 20.8108 11.9963C20.6627 11.8482 20.487 11.7308 20.2935 11.6507C20.1001 11.5706 19.8928 11.5293 19.6834 11.5293C19.474 11.5293 19.2667 11.5706 19.0733 11.6507C18.8798 11.7308 18.7041 11.8482 18.556 11.9963L18.5533 11.999L6.93225 23.7978L6.93183 23.7982C6.92629 23.8039 6.91941 23.808 6.91182 23.8103C6.90423 23.8126 6.8962 23.8129 6.88848 23.8112C6.88076 23.8095 6.87357 23.8059 6.8676 23.8007C6.86164 23.7955 6.85708 23.7889 6.85437 23.7815L6.85442 23.7815L6.8517 23.7744C6.33175 22.4166 6.03617 20.9832 5.97654 19.5305C5.88584 17.273 6.46752 15.0394 7.64783 13.1128L7.64784 13.1128L7.64935 13.1103C11.0633 7.46411 19.1631 4.34288 29.4924 4.94937L29.4925 4.94938C29.6378 4.95786 29.7749 5.01939 29.8778 5.12228L30.2308 4.76927L29.8778 5.12228C29.9806 5.22516 30.0422 5.36225 30.0507 5.50751ZM30.5498 5.47836C30.5342 5.21078 30.4208 4.95825 30.2313 4.76872L30.5498 5.47836Z" fill="#5F9A01" stroke="white"/>
</svg>
