<svg width="147" height="76" viewBox="0 0 147 76" fill="none" xmlns="http://www.w3.org/2000/svg">
<path d="M35.3775 49.45C35.2442 50.05 35.0275 50.6 34.7275 51.1C34.4609 51.6 34.1275 52.05 33.7275 52.45C33.5942 52.5833 33.4775 52.7 33.3775 52.8C33.2775 52.8667 33.1609 52.9667 33.0275 53.1C32.9275 53.2 32.8609 53.3333 32.8275 53.5C32.8275 53.6333 32.8942 53.7333 33.0275 53.8C33.2942 54 33.4275 54.25 33.4275 54.55C33.4609 54.8167 33.5775 55.05 33.7775 55.25C33.8109 55.4833 33.8275 55.7 33.8275 55.9C33.8609 56.1 33.8442 56.3167 33.7775 56.55C33.7442 56.7167 33.7109 56.9 33.6775 57.1C33.6775 57.2667 33.6775 57.45 33.6775 57.65C33.6442 57.7833 33.6109 57.95 33.5775 58.15C33.5442 58.3167 33.4942 58.4833 33.4275 58.65C33.3275 58.8833 33.2942 59.1 33.3275 59.3C33.3609 59.7333 33.3109 60.1667 33.1775 60.6C33.0442 61 32.9275 61.4333 32.8275 61.9C32.7942 62.1 32.7275 62.2833 32.6275 62.45C32.5609 62.65 32.4942 62.8667 32.4275 63.1C32.3275 63.2 32.2109 63.3167 32.0775 63.45C31.9775 63.5833 31.8442 63.7167 31.6775 63.85C31.6442 63.8833 31.5942 63.9167 31.5275 63.95C31.4942 64.0167 31.4442 64.0833 31.3775 64.15C31.2442 64.0833 31.1275 64.0167 31.0275 63.95C30.9609 63.8833 30.8609 63.8333 30.7275 63.8C30.5609 63.8333 30.3775 63.8667 30.1775 63.9C29.9775 63.9333 29.7775 63.95 29.5775 63.95C29.3775 63.95 29.1775 63.9667 28.9775 64C28.7775 64.0667 28.5775 64.1333 28.3775 64.2C28.0442 64.2667 27.7942 64.2167 27.6275 64.05C27.5942 63.6167 27.5442 63.3167 27.4775 63.15C27.4109 62.9833 27.2442 62.6 26.9775 62C26.9775 61.8333 26.9775 61.7 26.9775 61.6C27.0109 61.5 27.0109 61.3833 26.9775 61.25C26.9442 60.9833 26.9109 60.7 26.8775 60.4C26.8442 60.1 26.8109 59.8167 26.7775 59.55C26.5109 59.4167 26.3442 59.3667 26.2775 59.4C26.0775 59.5 25.8775 59.5333 25.6775 59.5C25.4775 59.4667 25.2775 59.45 25.0775 59.45C25.0109 59.45 24.9775 59.5 24.9775 59.6C24.9442 59.7 24.8942 59.8167 24.8275 59.95C24.7609 60.05 24.6942 60.1833 24.6275 60.35C24.2609 60.5833 23.8775 60.85 23.4775 61.15C23.0775 61.4167 22.6609 61.6833 22.2275 61.95C22.1609 61.9833 22.0942 62.0167 22.0275 62.05C21.9609 62.1167 21.8942 62.15 21.8275 62.15C21.2942 62.2833 20.8442 62.5667 20.4775 63C20.4109 63.0667 20.2775 63.1333 20.0775 63.2C19.3775 63.6 18.6442 63.9833 17.8775 64.35C17.1442 64.7167 16.3609 64.9833 15.5275 65.15C15.1275 65.35 14.7275 65.45 14.3275 65.45C14.1609 65.45 13.9775 65.4667 13.7775 65.5C13.5775 65.5333 13.3942 65.6 13.2275 65.7C12.9275 65.8333 12.6109 65.9167 12.2775 65.95C12.0109 65.9833 11.7609 65.9333 11.5275 65.8C11.3275 65.7 11.1442 65.5833 10.9775 65.45C10.9109 65.3833 10.8442 65.3 10.7775 65.2C10.7109 65.1 10.6442 65.0333 10.5775 65C10.2442 64.9 9.92754 64.8667 9.62754 64.9C9.36087 64.9333 9.09421 64.9833 8.82754 65.05C8.62754 65.05 8.46087 65 8.32754 64.9C8.22754 64.8 8.14421 64.7167 8.07754 64.65C8.04421 64.6167 7.97754 64.5667 7.87754 64.5C7.81087 64.4667 7.74421 64.4333 7.67754 64.4C7.44421 64.3667 7.21087 64.25 6.97754 64.05C6.74421 63.8833 6.49421 63.7167 6.22754 63.55C5.96087 63.3833 5.69421 63.2167 5.42754 63.05C5.26087 63.0167 5.07754 62.9667 4.87754 62.9C4.71087 62.8667 4.54421 62.85 4.37754 62.85C4.27754 62.7833 4.22754 62.6333 4.22754 62.4V61.95C4.09421 61.8833 3.97754 61.8333 3.87754 61.8C3.81087 61.7333 3.72754 61.6833 3.62754 61.65C3.39421 61.3833 3.19421 61.1 3.02754 60.8C2.89421 60.5 2.76087 60.1833 2.62754 59.85C2.46087 59.55 2.42754 59.2167 2.52754 58.85C2.52754 58.7167 2.54421 58.6167 2.57754 58.55C2.64421 58.45 2.66087 58.3333 2.62754 58.2C2.49421 57.7333 2.46087 57.2667 2.52754 56.8C2.62754 56.3333 2.72754 55.8667 2.82754 55.4C3.02754 55.1667 3.19421 54.9 3.32754 54.6C3.49421 54.3 3.64421 53.9833 3.77754 53.65C3.87754 53.2833 4.07754 53 4.37754 52.8C4.54421 52.7333 4.66087 52.6167 4.72754 52.45C4.82754 52.2833 4.92754 52.1 5.02754 51.9C5.22754 51.6333 5.42754 51.3833 5.62754 51.15C5.86087 50.9167 6.09421 50.6833 6.32754 50.45C6.46087 50.35 6.56087 50.25 6.62754 50.15C6.72754 50.05 6.82754 49.9833 6.92754 49.95C7.22754 49.7833 7.51087 49.5833 7.77754 49.35C8.04421 49.1167 8.29421 48.9 8.52754 48.7C8.82754 48.5 9.12754 48.45 9.42754 48.55C9.59421 48.45 9.72754 48.3667 9.82754 48.3C9.96087 48.2 10.0942 48.1167 10.2275 48.05C10.3275 47.9833 10.4275 47.9167 10.5275 47.85C10.6609 47.7833 10.7775 47.7 10.8775 47.6C11.0775 47.5 11.2775 47.4 11.4775 47.3C11.6775 47.1667 11.8942 47.0667 12.1275 47C12.3609 46.9333 12.5775 46.8333 12.7775 46.7C12.9775 46.5667 13.1775 46.4333 13.3775 46.3C13.4109 46.2333 13.4442 46.1667 13.4775 46.1C13.5109 46.0333 13.5442 45.9833 13.5775 45.95C13.5775 45.75 13.5109 45.6167 13.3775 45.55C13.2775 45.4833 13.2109 45.3833 13.1775 45.25C13.1109 45.05 13.1275 44.8 13.2275 44.5C13.4942 43.6667 13.4942 42.85 13.2275 42.05C13.1942 41.7833 13.1775 41.5167 13.1775 41.25C13.1775 40.9833 13.1442 40.7333 13.0775 40.5C13.0775 40.3333 13.0109 40.3 12.8775 40.4C12.7442 40.4667 12.5942 40.5167 12.4275 40.55C12.0942 40.6167 11.7942 40.6833 11.5275 40.75C10.8942 40.85 10.2942 40.7833 9.72754 40.55C9.59421 40.55 9.46087 40.5833 9.32754 40.65C9.22754 40.7167 9.11087 40.7833 8.97754 40.85C8.74421 40.9833 8.54421 41.05 8.37754 41.05C8.21087 41.0167 8.01087 40.8667 7.77754 40.6C7.74421 40.5667 7.71087 40.5333 7.67754 40.5C7.64421 40.4667 7.59421 40.4333 7.52754 40.4C7.42754 40.2 7.39421 39.9667 7.42754 39.7C7.46087 39.4333 7.39421 39.2333 7.22754 39.1C7.29421 38.8667 7.34421 38.65 7.37754 38.45C7.44421 38.25 7.49421 38.05 7.52754 37.85C7.59421 37.6833 7.59421 37.5167 7.52754 37.35C7.49421 37.15 7.49421 36.95 7.52754 36.75C7.59421 36.5833 7.62754 36.4333 7.62754 36.3C7.62754 36.1333 7.64421 35.9833 7.67754 35.85C7.71087 35.7167 7.74421 35.6 7.77754 35.5C7.81087 35.4 7.84421 35.2833 7.87754 35.15C7.94421 35.05 8.01087 35.0167 8.07754 35.05C8.17754 35.05 8.27754 35.0667 8.37754 35.1C8.57754 35.1333 8.82754 35.1333 9.12754 35.1C9.32754 35.0333 9.52754 34.9667 9.72754 34.9C9.92754 34.8333 10.1275 34.7833 10.3275 34.75C10.4942 34.65 10.6609 34.6167 10.8275 34.65C10.9942 34.6833 11.1609 34.7 11.3275 34.7C11.5942 34.6333 11.7942 34.5 11.9275 34.3C12.0609 34.0667 12.2442 33.8833 12.4775 33.75C12.5442 33.75 12.6109 33.75 12.6775 33.75C12.7442 33.7167 12.8109 33.7 12.8775 33.7C13.2775 33.7 13.6942 33.6 14.1275 33.4C14.2609 33.3333 14.3775 33.25 14.4775 33.15C14.6109 33.05 14.6942 32.8833 14.7275 32.65C14.6609 31.9833 14.6275 31.3167 14.6275 30.65C14.6275 29.95 14.7442 29.2667 14.9775 28.6C15.3442 28.5333 15.6442 28.4667 15.8775 28.4C16.0442 28.3667 16.1942 28.3167 16.3275 28.25C16.4942 28.1833 16.6609 28.1167 16.8275 28.05C17.2275 28.0167 17.6442 28.0167 18.0775 28.05C18.5109 28.05 18.9442 27.9833 19.3775 27.85C19.4775 27.8167 19.5775 27.8167 19.6775 27.85C19.7775 27.8833 19.8942 27.9167 20.0275 27.95C20.3609 27.85 20.6442 27.7167 20.8775 27.55H21.1775C21.5109 27.6833 21.8275 27.7333 22.1275 27.7C22.4609 27.6333 22.7942 27.6833 23.1275 27.85C23.1609 28.0167 23.1275 28.15 23.0275 28.25C22.9275 28.3167 22.8609 28.4333 22.8275 28.6C22.8275 28.6333 22.8275 28.7 22.8275 28.8C22.8275 28.8667 22.8442 28.9333 22.8775 29C23.0442 29.6 23.0109 30.1667 22.7775 30.7C22.6442 31.0333 22.5942 31.45 22.6275 31.95V33.15C22.5942 33.2833 22.6275 33.3833 22.7275 33.45C22.8609 33.5167 22.9942 33.5333 23.1275 33.5C23.2275 33.4333 23.3109 33.3833 23.3775 33.35C23.4442 33.2833 23.4942 33.2333 23.5275 33.2C23.6942 33.2333 23.8609 33.2667 24.0275 33.3C24.1942 33.3333 24.3442 33.3667 24.4775 33.4C24.7109 33.5 24.9275 33.55 25.1275 33.55C25.3609 33.55 25.5942 33.5667 25.8275 33.6C26.1942 33.6333 26.5442 33.65 26.8775 33.65C27.2109 33.65 27.5109 33.6667 27.7775 33.7C28.2109 33.8 28.5609 34.0167 28.8275 34.35C28.8275 34.4167 28.8275 34.5167 28.8275 34.65C28.8609 34.75 28.8775 34.8333 28.8775 34.9C28.8775 35.1 28.8609 35.3 28.8275 35.5C28.8275 35.7 28.8109 35.9333 28.7775 36.2C28.7442 36.4333 28.7109 36.7 28.6775 37C28.6442 37.3 28.6442 37.5833 28.6775 37.85C28.6775 38.15 28.5775 38.4333 28.3775 38.7C28.2442 38.8667 28.1109 39.0333 27.9775 39.2C27.8775 39.3333 27.7775 39.4833 27.6775 39.65C27.3775 40.05 26.9775 40.1833 26.4775 40.05H26.2775C25.7442 40.1833 25.3442 40.2833 25.0775 40.35C24.8109 40.3833 24.5609 40.3833 24.3275 40.35C24.0942 40.3167 23.7275 40.2667 23.2275 40.2C22.8275 40.2333 22.5109 40.2833 22.2775 40.35C22.0775 40.4167 21.9275 40.6333 21.8275 41C21.7609 41.0333 21.6942 41.0667 21.6275 41.1C21.5942 41.1333 21.5609 41.15 21.5275 41.15C21.2942 41.25 21.1942 41.35 21.2275 41.45C21.2609 41.5833 21.3775 41.6833 21.5775 41.75C21.6775 41.85 21.7775 41.9167 21.8775 41.95L21.6775 42.45C21.7442 42.5833 21.7942 42.7 21.8275 42.8C21.8942 42.8667 21.9442 42.95 21.9775 43.05C22.0109 43.25 21.9442 43.4333 21.7775 43.6C21.6442 43.7333 21.5942 43.9167 21.6275 44.15C21.6942 44.2833 21.7275 44.4333 21.7275 44.6C21.7275 44.7333 21.7942 44.8 21.9275 44.8C22.0609 44.8333 22.1109 44.9833 22.0775 45.25C22.0442 45.5167 22.0942 45.6333 22.2275 45.6C22.3942 45.7333 22.5942 45.7167 22.8275 45.55C23.0942 45.3833 23.2942 45.4 23.4275 45.6C23.5275 45.7333 23.6775 45.8167 23.8775 45.85C24.1109 45.8833 24.3275 45.9833 24.5275 46.15C25.0942 46.1833 25.6109 46.2833 26.0775 46.45C26.5775 46.5833 27.0942 46.7333 27.6275 46.9C27.8942 47.1 28.1442 47.2833 28.3775 47.45C28.6442 47.6167 28.9275 47.7833 29.2275 47.95C29.2942 47.9833 29.3609 48 29.4275 48C29.5275 47.9667 29.5942 47.95 29.6275 47.95C29.8609 47.6833 30.0609 47.45 30.2275 47.25C30.4275 47.0167 30.6442 46.7833 30.8775 46.55C31.0775 46.35 31.2775 46.1833 31.4775 46.05C31.6775 45.8833 31.8942 45.7167 32.1275 45.55C32.1942 45.5167 32.3275 45.4667 32.5275 45.4C32.5942 45.4 32.6442 45.4167 32.6775 45.45C32.7442 45.4833 32.7942 45.5167 32.8275 45.55C32.8609 45.55 32.9109 45.5667 32.9775 45.6C33.0442 45.7 33.1442 45.8167 33.2775 45.95C33.4442 46.2833 33.6609 46.5833 33.9275 46.85C34.1942 47.0833 34.3942 47.3667 34.5275 47.7C34.6942 48.0333 34.8442 48.35 34.9775 48.65C35.1109 48.9167 35.2442 49.1833 35.3775 49.45ZM24.5275 52.95C24.5275 52.9167 24.4942 52.9 24.4275 52.9C24.3609 52.8667 24.3109 52.8333 24.2775 52.8C24.1442 52.8333 24.0109 52.85 23.8775 52.85C23.7775 52.85 23.6609 52.8667 23.5275 52.9C23.3275 52.8667 23.1275 52.8333 22.9275 52.8C22.7275 52.7333 22.5109 52.7 22.2775 52.7C22.0775 52.7 21.8609 52.7167 21.6275 52.75C21.3942 52.7833 21.1442 52.7833 20.8775 52.75C20.7775 52.7167 20.6609 52.7667 20.5275 52.9C20.3942 53.0333 20.3275 53.1833 20.3275 53.35V54.2C20.2942 54.2333 20.2442 54.3 20.1775 54.4C20.1442 54.5 20.1109 54.6167 20.0775 54.75C20.1442 54.95 20.2109 55.15 20.2775 55.35C20.3442 55.55 20.4109 55.7667 20.4775 56C20.5109 56 20.5275 56.0167 20.5275 56.05C20.5609 56.0833 20.5775 56.1 20.5775 56.1C20.8442 56.0333 21.0609 55.9667 21.2275 55.9C21.4275 55.8333 21.6275 55.8 21.8275 55.8C21.9942 55.7667 22.1442 55.7167 22.2775 55.65C22.4109 55.55 22.5275 55.45 22.6275 55.35C22.9275 55.05 23.2275 54.7667 23.5275 54.5C23.8275 54.2 24.1109 53.9 24.3775 53.6C24.4442 53.5667 24.4775 53.5167 24.4775 53.45C24.5109 53.35 24.5275 53.1833 24.5275 52.95ZM13.1775 54.1C13.0775 54 12.9609 53.9667 12.8275 54C12.7275 54.0333 12.6275 54.0667 12.5275 54.1C12.4275 54.1 12.2942 54.0833 12.1275 54.05C11.9942 54.0167 11.8442 54.0333 11.6775 54.1C11.5442 54.1 11.4109 54.1833 11.2775 54.35C11.1775 54.4833 11.0442 54.5833 10.8775 54.65C10.7109 54.7167 10.5275 54.7833 10.3275 54.85C10.1609 54.8833 9.99421 54.9333 9.82754 55C9.76087 55.1333 9.69421 55.2667 9.62754 55.4C9.56087 55.5333 9.47754 55.6667 9.37754 55.8C9.27754 55.9 9.16087 56 9.02754 56.1C8.92754 56.2 8.84421 56.2833 8.77754 56.35C8.74421 56.55 8.71087 56.7333 8.67754 56.9C8.64421 57.0667 8.61087 57.2333 8.57754 57.4C8.54421 57.4333 8.47754 57.5 8.37754 57.6C8.27754 57.6667 8.19421 57.7333 8.12754 57.8C7.89421 57.9333 7.77754 58.15 7.77754 58.45C7.84421 58.65 7.87754 58.8667 7.87754 59.1C7.87754 59.3 7.94421 59.4833 8.07754 59.65C8.44421 59.9167 8.81087 60 9.17754 59.9C9.54421 59.8 9.89421 59.7333 10.2275 59.7C10.3609 59.7333 10.4775 59.7667 10.5775 59.8C10.7109 59.8 10.8109 59.8167 10.8775 59.85C11.0442 59.7833 11.1775 59.7333 11.2775 59.7C11.4109 59.6667 11.5275 59.6333 11.6275 59.6C11.7942 59.5333 11.9442 59.4833 12.0775 59.45C12.2109 59.3833 12.3442 59.3333 12.4775 59.3C12.5109 59.1333 12.5275 58.9833 12.5275 58.85C12.5609 58.6833 12.5942 58.5333 12.6275 58.4C12.7942 57.8667 12.9109 57.4 12.9775 57C13.0442 56.5667 13.0775 56.1 13.0775 55.6C13.0775 55.3333 13.0775 55.0833 13.0775 54.85C13.1109 54.6167 13.1442 54.3667 13.1775 54.1ZM64.8916 40.85C64.8916 41.15 64.8749 41.45 64.8416 41.75C64.8416 42.05 64.8083 42.3667 64.7416 42.7C64.7416 42.8333 64.6749 43 64.5416 43.2C64.1749 43.3333 63.8083 43.45 63.4416 43.55C63.1083 43.65 62.7583 43.7667 62.3916 43.9C62.1583 43.9667 61.9083 44.0333 61.6416 44.1C61.4083 44.1333 61.1416 44.15 60.8416 44.15C60.6083 44.15 60.4249 44.25 60.2916 44.45C60.1583 44.6167 60.0916 44.8167 60.0916 45.05C60.0916 45.1167 60.0916 45.2167 60.0916 45.35C60.0916 45.45 60.1083 45.5333 60.1416 45.6C60.2416 45.9667 60.3083 46.35 60.3416 46.75C60.3749 47.1167 60.4083 47.4833 60.4416 47.85C60.4416 48.1167 60.4583 48.3333 60.4916 48.5C60.6249 48.8 60.6749 49.1333 60.6416 49.5C60.6416 49.8333 60.7083 50.1833 60.8416 50.55C61.0083 51.0167 61.0249 51.4667 60.8916 51.9L60.7416 53.1C60.6083 53.3333 60.4416 53.5333 60.2416 53.7C60.0416 53.8667 59.8083 53.9833 59.5416 54.05C59.2749 54.1167 59.0249 54.2333 58.7916 54.4C58.5916 54.5333 58.3916 54.6833 58.1916 54.85C57.7249 54.8167 57.2416 54.85 56.7416 54.95C56.2749 55.05 55.7916 55.1333 55.2916 55.2C55.0249 55.4 54.7416 55.6 54.4416 55.8C54.1416 55.9667 53.8083 56.1167 53.4416 56.25C53.1416 56.3833 52.7749 56.4167 52.3416 56.35C52.2083 56.35 52.0916 56.3333 51.9916 56.3C51.9249 56.2333 51.8583 56.1833 51.7916 56.15C51.6583 55.9833 51.5249 55.8167 51.3916 55.65C51.2916 55.45 51.1916 55.2833 51.0916 55.15C51.0249 54.95 50.9749 54.75 50.9416 54.55C50.9083 54.35 50.8583 54.15 50.7916 53.95C50.7916 53.7167 50.7749 53.5667 50.7416 53.5C50.5083 53.1667 50.3749 52.8333 50.3416 52.5C50.3083 52.1667 50.2416 51.8333 50.1416 51.5C50.2083 51.3333 50.2749 51.2 50.3416 51.1C50.4083 51 50.5083 50.9167 50.6416 50.85C50.7749 50.6833 50.9083 50.5333 51.0416 50.4C51.2083 50.2667 51.3749 50.15 51.5416 50.05C51.7749 49.9167 51.9916 49.8333 52.1916 49.8C52.4249 49.7333 52.6416 49.6333 52.8416 49.5C52.9749 49.4333 53.0583 49.3833 53.0916 49.35C53.1583 49.2833 53.2416 49.1333 53.3416 48.9C53.1749 48.5667 53.0083 48.2333 52.8416 47.9C52.7083 47.5667 52.4583 47.3 52.0916 47.1C51.9583 47.0667 51.8249 47.1 51.6916 47.2C51.5916 47.2667 51.4583 47.3333 51.2916 47.4L50.4416 47.2C50.3083 47.1333 50.1749 47.05 50.0416 46.95C49.9416 46.8167 49.7916 46.7667 49.5916 46.8C49.4916 46.8667 49.3749 46.9667 49.2416 47.1C49.2083 47.1333 49.1583 47.1833 49.0916 47.25C49.0583 47.3167 49.0083 47.3833 48.9416 47.45C48.7749 47.4833 48.5916 47.5167 48.3916 47.55C48.2249 47.5833 48.0583 47.6333 47.8916 47.7C47.5916 47.8 47.2749 47.9333 46.9416 48.1C46.5416 48.1 46.3083 47.9 46.2416 47.5C46.2083 47 46.1083 46.5 45.9416 46C45.7749 45.4667 45.6083 44.95 45.4416 44.45C45.3749 44.2167 45.3249 44 45.2916 43.8C45.2583 43.5667 45.2749 43.3333 45.3416 43.1C45.4749 42.6 45.5416 42.05 45.5416 41.45C45.5749 41.3833 45.6249 41.3333 45.6916 41.3C45.7583 41.2333 45.8083 41.15 45.8416 41.05C46.2749 41.0167 46.7083 40.9667 47.1416 40.9C47.5749 40.8 48.0083 40.6833 48.4416 40.55C48.7083 40.4833 48.9083 40.45 49.0416 40.45C49.5416 40.4167 50.0083 40.3167 50.4416 40.15C50.9083 39.9833 51.3583 39.8167 51.7916 39.65C51.8583 39.65 51.9249 39.5667 51.9916 39.4C51.9916 39 51.9249 38.6167 51.7916 38.25C51.6916 37.85 51.6083 37.4667 51.5416 37.1C51.3749 36.9333 51.1916 36.8667 50.9916 36.9C50.7916 36.9 50.5916 36.8833 50.3916 36.85C50.1916 36.9833 49.9249 37.1 49.5916 37.2C49.4583 37.2333 49.3249 37.2833 49.1916 37.35C49.0916 37.3833 48.9749 37.4333 48.8416 37.5C48.5083 37.6333 48.1583 37.7667 47.7916 37.9C47.4583 38 47.1083 38.0833 46.7416 38.15C46.5083 38.1833 46.2916 38.1667 46.0916 38.1C45.8916 38 45.6916 38 45.4916 38.1C45.3249 37.7333 45.1749 37.3833 45.0416 37.05C44.9083 36.7167 44.7583 36.3833 44.5916 36.05C44.5249 35.9833 44.4749 35.9 44.4416 35.8C44.4416 35.6667 44.4249 35.5667 44.3916 35.5C44.3583 34.7333 44.1583 34 43.7916 33.3V32.1C43.9249 31.9667 44.0583 31.85 44.1916 31.75C44.3583 31.6167 44.5249 31.4833 44.6916 31.35C45.2583 31.2833 45.8249 31.1333 46.3916 30.9C46.9583 30.6333 47.5249 30.4333 48.0916 30.3C48.3583 30.1333 48.6083 30 48.8416 29.9C49.1083 29.8 49.3583 29.7167 49.5916 29.65C49.9916 29.25 50.1083 28.8 49.9416 28.3C49.8749 28.1333 49.8083 27.9667 49.7416 27.8C49.7083 27.6333 49.6583 27.4833 49.5916 27.35C49.5583 27.2167 49.5249 27.1 49.4916 27C49.4583 26.9 49.4249 26.8167 49.3916 26.75C49.5916 26.4167 49.7583 26.2 49.8916 26.1C50.0583 25.9667 50.2749 25.8833 50.5416 25.85C50.7083 25.7833 50.8583 25.7167 50.9916 25.65C51.1583 25.55 51.3083 25.4833 51.4416 25.45C51.5416 25.3833 51.6416 25.35 51.7416 25.35C51.8416 25.35 51.9416 25.35 52.0416 25.35L52.7416 25.05C52.8416 24.95 52.9416 24.9 53.0416 24.9C53.4083 24.9 53.7749 24.8667 54.1416 24.8C54.5416 24.7333 54.9249 24.7333 55.2916 24.8C55.3583 24.8 55.4916 24.7667 55.6916 24.7C55.8583 24.6333 56.0083 24.6 56.1416 24.6C56.3083 24.5667 56.4749 24.55 56.6416 24.55C56.7083 24.65 56.7749 24.7333 56.8416 24.8C56.9083 24.8667 56.9749 24.9667 57.0416 25.1C57.1416 25.2 57.1916 25.35 57.1916 25.55C57.2249 25.7167 57.2583 25.8833 57.2916 26.05C57.3583 26.3167 57.4249 26.55 57.4916 26.75C57.6916 26.95 57.8749 27.05 58.0416 27.05C58.3083 27.05 58.5083 27 58.6416 26.9C59.1083 26.7667 59.5583 26.6833 59.9916 26.65C60.4583 26.5833 60.9249 26.5333 61.3916 26.5C61.5583 26.4333 61.7249 26.3667 61.8916 26.3C62.0583 26.2 62.2416 26.0833 62.4416 25.95C62.5083 25.9833 62.5749 26.0333 62.6416 26.1C62.7083 26.1333 62.7583 26.1833 62.7916 26.25C62.9249 26.7833 63.0916 27.3167 63.2916 27.85C63.4916 28.35 63.6749 28.8833 63.8416 29.45C63.7749 29.7833 63.7416 30.15 63.7416 30.55C63.7749 30.9167 63.8083 31.2833 63.8416 31.65C63.8749 31.7833 63.8249 31.8833 63.6916 31.95C63.5916 32.0167 63.4749 32.0333 63.3416 32C63.3083 32 63.2916 32 63.2916 32C63.2916 31.9667 63.2583 31.95 63.1916 31.95C63.0916 31.85 63.0083 31.7833 62.9416 31.75C62.7749 31.8167 62.7083 31.9 62.7416 32C62.8416 32.3 62.7416 32.5667 62.4416 32.8C62.4083 32.8333 62.3583 32.8667 62.2916 32.9C62.2249 32.9333 62.1416 32.9667 62.0416 33C61.7416 33.1 61.4583 33.3 61.1916 33.6C61.1583 33.6333 61.0916 33.6833 60.9916 33.75C60.9249 33.7833 60.8583 33.8333 60.7916 33.9H60.0416C59.8749 34 59.7083 34.1 59.5416 34.2C59.4083 34.2667 59.2583 34.3333 59.0916 34.4C58.6249 34.5333 58.4416 34.8667 58.5416 35.4C58.6749 35.8333 58.8083 36.25 58.9416 36.65C59.1083 37.0167 59.2249 37.3833 59.2916 37.75C59.4583 37.8833 59.6083 37.9667 59.7416 38C59.9083 38 60.0749 38 60.2416 38L60.8916 37.7H61.8416C62.1416 37.5667 62.4249 37.4833 62.6916 37.45C62.8916 37.4833 63.0749 37.5167 63.2416 37.55C63.4416 37.5833 63.6416 37.6333 63.8416 37.7C64.0083 37.7333 64.1249 37.7833 64.1916 37.85C64.2916 37.8833 64.4583 38.0333 64.6916 38.3C64.7249 38.4333 64.7416 38.6333 64.7416 38.9C64.8083 39.2 64.8416 39.5167 64.8416 39.85C64.8416 40.1833 64.8583 40.5167 64.8916 40.85ZM52.7916 60.55C52.4916 60.85 52.1916 61.2 51.8916 61.6C51.7583 61.8 51.6416 62 51.5416 62.2C51.4416 62.4 51.3249 62.6 51.1916 62.8C51.1916 63.0333 51.1749 63.25 51.1416 63.45C51.1416 63.65 51.1249 63.85 51.0916 64.05C51.0916 64.2167 51.0416 64.3833 50.9416 64.55C50.9083 64.6167 50.8249 64.6833 50.6916 64.75C50.5916 64.8167 50.5083 64.8333 50.4416 64.8C50.2749 64.7333 50.0916 64.65 49.8916 64.55C49.7249 64.45 49.5583 64.35 49.3916 64.25C49.1249 64.15 48.8249 64.1 48.4916 64.1C48.1916 64.1333 47.9083 64.1167 47.6416 64.05C46.7749 63.7167 46.0583 63.2667 45.4916 62.7C45.4249 62.5667 45.3249 62.4667 45.1916 62.4C45.0583 62.3333 44.9583 62.25 44.8916 62.15C44.6583 61.9167 44.3916 61.7333 44.0916 61.6C43.8249 61.4333 43.5583 61.2833 43.2916 61.15C43.0583 61.0167 42.8249 60.8833 42.5916 60.75C42.3916 60.6167 42.1749 60.5 41.9416 60.4C41.5749 59.9 41.2083 59.4167 40.8416 58.95C40.4749 58.45 40.1083 57.95 39.7416 57.45C39.7083 57.3833 39.6749 57.3167 39.6416 57.25C39.6416 57.15 39.6249 57.0667 39.5916 57C39.6583 56.8333 39.7083 56.6833 39.7416 56.55C39.8083 56.3833 39.8749 56.2333 39.9416 56.1C40.0083 55.9667 40.0416 55.85 40.0416 55.75C40.0749 55.6167 40.1083 55.5 40.1416 55.4C40.4416 55.0333 40.7249 54.7 40.9916 54.4C41.2583 54.1 41.5416 53.7833 41.8416 53.45C41.9416 53.2833 42.0416 53.1 42.1416 52.9C42.2749 52.6667 42.4416 52.6 42.6416 52.7C42.7083 52.7333 42.7749 52.65 42.8416 52.45C42.8083 52.4167 42.7749 52.4 42.7416 52.4C42.7083 52.3667 42.6749 52.3333 42.6416 52.3C42.5083 51.9333 42.6249 51.6 42.9916 51.3H43.2416C43.4749 51.4333 43.6916 51.5833 43.8916 51.75C44.1249 51.9167 44.3083 52.1167 44.4416 52.35C44.6083 52.5833 44.7749 52.8 44.9416 53C45.1416 53.1667 45.3583 53.3167 45.5916 53.45C45.6916 53.4833 45.8083 53.5667 45.9416 53.7C46.1416 54 46.3583 54.2167 46.5916 54.35C46.7916 54.4833 46.9749 54.6333 47.1416 54.8C47.3416 54.9667 47.5416 55.1167 47.7416 55.25C47.9416 55.3833 48.0749 55.5833 48.1416 55.85C48.2416 56.0833 48.3916 56.3 48.5916 56.5C48.7583 56.5333 48.9249 56.5667 49.0916 56.6C49.2583 56.6333 49.4249 56.6833 49.5916 56.75C49.6583 56.8167 49.7583 56.8833 49.8916 56.95C50.0916 57.2833 50.3249 57.6 50.5916 57.9C50.8583 58.1667 51.1749 58.3833 51.5416 58.55C51.6083 58.5833 51.6749 58.6333 51.7416 58.7C51.8083 58.7333 51.8749 58.7833 51.9416 58.85C52.1083 58.95 52.2416 59.0667 52.3416 59.2C52.4749 59.3 52.6083 59.4167 52.7416 59.55V60.15C52.7416 60.3167 52.7583 60.45 52.7916 60.55ZM91.9303 34.3C91.9636 34.5 91.9469 34.6667 91.8803 34.8C91.8469 34.9 91.7969 35.0167 91.7303 35.15C91.5969 35.4167 91.5303 35.7167 91.5303 36.05C91.5303 36.3833 91.4136 36.6167 91.1803 36.75C91.1803 36.95 91.0803 37.1833 90.8803 37.45C90.7469 37.65 90.6303 37.8667 90.5303 38.1C90.4303 38.3333 90.3469 38.5833 90.2803 38.85C89.7469 39.1833 89.3803 39.3833 89.1803 39.45C89.0136 39.5167 88.6469 39.5833 88.0803 39.65C87.9803 39.6167 87.8803 39.5833 87.7803 39.55C87.6803 39.4833 87.5636 39.4333 87.4303 39.4C87.3969 39.4 87.3469 39.4167 87.2803 39.45C87.2136 39.45 87.1303 39.4667 87.0303 39.5C86.9969 39.5333 86.9303 39.5667 86.8303 39.6C86.7636 39.6333 86.6969 39.6667 86.6303 39.7C86.3969 39.6333 86.1803 39.5833 85.9803 39.55C85.7803 39.4833 85.5803 39.4333 85.3803 39.4C84.9469 39.3333 84.6136 39.4833 84.3803 39.85C84.3803 40.0167 84.3803 40.2 84.3803 40.4C84.3803 40.5667 84.3636 40.7333 84.3303 40.9C84.2969 41.0667 84.2636 41.2333 84.2303 41.4C84.2303 41.5667 84.2303 41.7333 84.2303 41.9C84.1969 42.0333 84.1469 42.2 84.0803 42.4C84.0469 42.5667 84.0303 42.75 84.0303 42.95C84.0303 43.1167 84.0303 43.3 84.0303 43.5C84.0636 43.6667 84.0969 43.85 84.1303 44.05C83.9303 44.2833 83.7303 44.5167 83.5303 44.75C83.3636 44.9833 83.1969 45.2167 83.0303 45.45C82.9303 45.55 82.8803 45.65 82.8803 45.75C82.7803 46.4167 82.6469 47.1 82.4803 47.8C82.3469 48.5 82.2136 49.1833 82.0803 49.85C82.0469 50.25 81.8636 50.6167 81.5303 50.95C81.3969 51.05 81.2969 51.15 81.2303 51.25C81.1636 51.35 81.0469 51.4333 80.8803 51.5C80.7136 51.5 80.5803 51.45 80.4803 51.35C80.3803 51.2167 80.2469 51.1333 80.0803 51.1C79.9469 51.0333 79.8136 51.0333 79.6803 51.1C79.5803 51.1333 79.4636 51.1667 79.3303 51.2C78.6969 51.0333 78.2636 50.95 78.0303 50.95C77.8303 50.9167 77.4469 50.9833 76.8803 51.15C76.7469 51.1167 76.6469 51.0333 76.5803 50.9C76.5136 50.7667 76.4136 50.6667 76.2803 50.6C76.1803 50.5333 76.1136 50.4333 76.0803 50.3C76.0469 50.1667 75.9469 50.0833 75.7803 50.05C75.6469 50.1167 75.5303 50.2 75.4303 50.3C75.3303 50.4 75.1969 50.4833 75.0303 50.55C74.9303 50.55 74.8303 50.5667 74.7303 50.6C74.6303 50.6 74.5303 50.6 74.4303 50.6C74.3636 50.4667 74.2969 50.35 74.2303 50.25C74.1636 50.1167 74.0803 49.9833 73.9803 49.85C74.0136 49.6833 74.0303 49.5167 74.0303 49.35C74.0303 49.1833 74.0303 48.9833 74.0303 48.75C74.0636 48.4167 74.1136 48.0667 74.1803 47.7C74.2469 47.3333 74.3636 46.9833 74.5303 46.65C74.5969 46.4833 74.6303 46.2333 74.6303 45.9C74.5969 45.6333 74.6136 45.3833 74.6803 45.15C74.7803 44.8833 74.8969 44.65 75.0303 44.45C74.8969 44.05 74.8636 43.6667 74.9303 43.3C75.0303 42.9333 75.1136 42.5667 75.1803 42.2C75.0803 41.9333 74.8803 41.8 74.5803 41.8C74.5136 41.8 74.4303 41.8167 74.3303 41.85C74.2636 41.85 74.1803 41.8667 74.0803 41.9C73.3803 42.0667 72.6636 42.1 71.9303 42C71.7969 41.9667 71.6636 41.9667 71.5303 42C71.3969 42 71.2803 42 71.1803 42H70.1803C70.0803 42 69.9303 41.9667 69.7303 41.9C69.6969 41.8 69.6636 41.7167 69.6303 41.65C69.5969 41.5833 69.5469 41.5167 69.4803 41.45C69.3803 40.9833 69.2969 40.5333 69.2303 40.1C69.1636 39.6333 69.1636 39.15 69.2303 38.65V38C69.2303 37.9 69.2136 37.8 69.1803 37.7C69.1803 37.6 69.1803 37.5 69.1803 37.4C69.2136 37.2667 69.2303 37.1667 69.2303 37.1C69.2636 37 69.2969 36.8833 69.3303 36.75C69.2969 36.65 69.2469 36.5333 69.1803 36.4C69.1469 36.2667 69.0969 36.1333 69.0303 36C69.0636 35.9333 69.0969 35.85 69.1303 35.75C69.1636 35.6167 69.1969 35.5167 69.2303 35.45C69.2303 35.4167 69.2136 35.3833 69.1803 35.35C69.1803 35.3167 69.1803 35.2833 69.1803 35.25C68.9803 34.85 68.9303 34.5667 69.0303 34.4C69.1303 34.2333 69.3136 34.0333 69.5803 33.8C69.6469 33.7333 69.7803 33.6667 69.9803 33.6C70.4136 33.3667 70.8303 33.0333 71.2303 32.6C71.4969 32.6 71.7803 32.6333 72.0803 32.7C72.3803 32.7667 72.6636 32.8 72.9303 32.8C73.2303 32.8333 73.5136 32.8667 73.7803 32.9C74.0803 32.9 74.3803 32.9333 74.6803 33C74.9469 33.0667 75.1803 33.0833 75.3803 33.05C75.5803 32.9833 75.7803 32.8833 75.9803 32.75C76.0469 32.6833 76.1136 32.6333 76.1803 32.6C76.2469 32.5333 76.3136 32.4833 76.3803 32.45C76.7469 32.15 76.9303 31.7833 76.9303 31.35C76.9636 31.2167 76.9636 31.0833 76.9303 30.95C76.9303 30.8167 76.9303 30.6833 76.9303 30.55C76.9303 29.9167 76.9969 29.3333 77.1303 28.8C77.1969 28.7667 77.2636 28.7333 77.3303 28.7C77.3969 28.6667 77.4469 28.6333 77.4803 28.6C77.7136 28.5 77.9303 28.4 78.1303 28.3C78.3636 28.1667 78.5469 28.0167 78.6803 27.85C78.7469 27.75 78.7636 27.6833 78.7303 27.65C78.7303 27.5833 78.6469 27.5167 78.4803 27.45C78.4803 27.45 78.4636 27.45 78.4303 27.45C78.4303 27.4167 78.4303 27.3833 78.4303 27.35V27.2C78.5969 27.1 78.7469 27.05 78.8803 27.05C79.2469 27.0167 79.5969 27.0167 79.9303 27.05C80.2636 27.0833 80.5636 27.2 80.8303 27.4C81.1969 27.6 81.5969 27.6667 82.0303 27.6C82.3303 27.6 82.6136 27.5833 82.8803 27.55C83.1469 27.5167 83.3969 27.5 83.6303 27.5C83.9636 27.4333 84.1969 27.55 84.3303 27.85C84.3303 27.9833 84.3136 28.1333 84.2803 28.3C84.2803 28.4333 84.2803 28.5833 84.2803 28.75C84.4136 29.0167 84.5303 29.2833 84.6303 29.55C84.7303 29.8167 84.7636 30.1167 84.7303 30.45C84.6969 30.5167 84.6636 30.6 84.6303 30.7C84.5969 30.8 84.5636 30.9 84.5303 31C84.6303 31.3667 84.8136 31.5667 85.0803 31.6C85.4469 31.6 85.8303 31.6167 86.2303 31.65C86.6303 31.65 87.0303 31.65 87.4303 31.65C88.0303 31.6167 88.5969 31.7167 89.1303 31.95C89.1969 31.9833 89.2469 32 89.2803 32C89.3469 31.9667 89.3969 31.9667 89.4303 32C89.5636 31.9667 89.6969 31.9333 89.8303 31.9C89.9636 31.8333 90.1136 31.7833 90.2803 31.75C90.4803 31.8833 90.6803 32.0167 90.8803 32.15C91.1136 32.25 91.3469 32.3833 91.5803 32.55C91.6136 32.7167 91.6303 32.8833 91.6303 33.05C91.6303 33.1833 91.6469 33.3333 91.6803 33.5C91.7469 33.6333 91.7969 33.7833 91.8303 33.95C91.8636 34.0833 91.8969 34.2 91.9303 34.3ZM103.43 45.15C103.43 45.2167 103.414 45.3 103.38 45.4C103.38 45.4667 103.38 45.5333 103.38 45.6C103.48 45.9 103.514 46.2 103.48 46.5C103.48 46.7667 103.447 47.05 103.38 47.35C103.347 47.55 103.297 47.75 103.23 47.95C103.197 48.15 103.147 48.3833 103.08 48.65C102.947 48.8167 102.83 49.0167 102.73 49.25C102.63 49.45 102.497 49.6833 102.33 49.95C102.197 50.1167 102.114 50.3167 102.08 50.55C102.047 50.7833 101.997 51.0167 101.93 51.25C101.797 51.4833 101.664 51.7167 101.53 51.95C101.397 52.1833 101.247 52.4333 101.08 52.7C100.947 52.7333 100.83 52.7833 100.73 52.85C100.664 52.9167 100.564 52.9833 100.43 53.05C100.397 53.05 100.347 53.0667 100.28 53.1C100.214 53.1 100.147 53.0833 100.08 53.05C99.9136 52.9833 99.7303 52.9667 99.5303 53C99.3303 53 99.1469 53.0167 98.9803 53.05C98.5469 53.0833 98.2469 53.1 98.0803 53.1C97.9136 53.1 97.5803 53.0333 97.0803 52.9C96.9469 52.9667 96.7803 53.0167 96.5803 53.05C96.4136 53.0833 96.2469 53.1333 96.0803 53.2C95.6469 53.2667 95.3303 53.1333 95.1303 52.8C95.0636 52.6667 94.9969 52.55 94.9303 52.45C94.8636 52.35 94.7969 52.2333 94.7303 52.1C94.8636 51.9333 94.9803 51.7833 95.0803 51.65C95.2136 51.4833 95.3136 51.3167 95.3803 51.15C95.4469 50.95 95.4969 50.7833 95.5303 50.65C95.4969 50.4833 95.4636 50.3167 95.4303 50.15C95.3969 49.9833 95.3636 49.8333 95.3303 49.7C95.0969 49.3667 94.8303 49.2 94.5303 49.2C94.2303 49.1 93.9636 49.1 93.7303 49.2C93.5969 49.2333 93.4469 49.2667 93.2803 49.3C93.1136 49.3333 92.9469 49.35 92.7803 49.35C92.6469 49.3833 92.4969 49.4 92.3303 49.4C92.1969 49.3667 92.0469 49.35 91.8803 49.35C91.7469 49.4833 91.6136 49.6333 91.4803 49.8C91.3469 49.9333 91.2469 50.05 91.1803 50.15C90.8469 50.2833 90.5303 50.3667 90.2303 50.4C89.9636 50.4 89.6969 50.45 89.4303 50.55C89.0969 50.6833 88.7803 50.7 88.4803 50.6C88.1803 50.5 87.9303 50.3333 87.7303 50.1C87.3303 49.6667 86.8969 49.3167 86.4303 49.05C86.2303 48.7833 86.1469 48.5167 86.1803 48.25C86.2136 47.9833 86.2469 47.7 86.2803 47.4C86.3136 47.1 86.4136 46.8333 86.5803 46.6C86.6803 46.4333 86.7303 46.2833 86.7303 46.15C86.7303 45.9833 86.7303 45.8167 86.7303 45.65C86.7636 45.25 86.7803 44.8667 86.7803 44.5C86.8136 44.1 86.8469 43.7 86.8803 43.3C86.8803 43.2333 86.8969 43.1667 86.9303 43.1C86.9636 43.0333 86.9969 42.9667 87.0303 42.9C87.1969 42.8667 87.3469 42.85 87.4803 42.85C87.6469 42.8167 87.8136 42.7833 87.9803 42.75C88.0469 42.6167 88.1303 42.4833 88.2303 42.35C88.3636 42.2167 88.4469 42.1 88.4803 42C88.6469 42 88.7803 41.9833 88.8803 41.95C88.9803 41.9167 89.0636 41.9167 89.1303 41.95C89.4636 42.05 89.7969 42.1 90.1303 42.1C90.4969 42.0667 90.8469 42.0833 91.1803 42.15C91.6803 42.25 92.0469 42.3 92.2803 42.3C92.5469 42.2667 92.9469 42.1833 93.4803 42.05C93.5469 42.0833 93.6136 42.1333 93.6803 42.2C93.7469 42.2333 93.7969 42.2833 93.8303 42.35C93.9969 42.4167 94.1303 42.4333 94.2303 42.4C94.3636 42.3667 94.4969 42.3667 94.6303 42.4C94.7636 42.4 94.9636 42.4333 95.2303 42.5C95.3303 42.4333 95.4303 42.35 95.5303 42.25C95.6636 42.15 95.7803 42.0833 95.8803 42.05C96.0469 42.1167 96.2136 42.2167 96.3803 42.35C96.5469 42.45 96.6969 42.5333 96.8303 42.6C97.1303 42.5667 97.4469 42.55 97.7803 42.55C98.1136 42.55 98.4469 42.5333 98.7803 42.5C99.3136 42.6 99.8469 42.7333 100.38 42.9C100.647 42.9667 100.897 43.05 101.13 43.15C101.397 43.25 101.63 43.3833 101.83 43.55C102.064 43.6833 102.28 43.8333 102.48 44C102.68 44.1333 102.897 44.2833 103.13 44.45C103.33 44.65 103.43 44.8833 103.43 45.15ZM100.88 59.2C100.847 59.3667 100.797 59.55 100.73 59.75C100.664 59.95 100.58 60.15 100.48 60.35C100.38 60.75 100.38 61.1667 100.48 61.6C100.514 61.6333 100.53 61.7 100.53 61.8C100.564 61.8667 100.597 61.9333 100.63 62C100.43 62.2333 100.28 62.3833 100.18 62.45C100.08 62.55 99.7969 62.7333 99.3303 63C99.2636 63.1333 99.1803 63.2667 99.0803 63.4C98.9803 63.5667 98.8969 63.7333 98.8303 63.9C98.5969 63.9333 98.3803 63.95 98.1803 63.95C97.9803 63.9833 97.7803 64.0167 97.5803 64.05C97.4469 64.0833 97.3136 64.1167 97.1803 64.15C97.0469 64.1833 96.9303 64.2167 96.8303 64.25H96.6303C96.4969 64.25 96.3636 64.2333 96.2303 64.2C96.0969 64.2333 95.9469 64.2833 95.7803 64.35C95.6469 64.45 95.4803 64.55 95.2803 64.65C95.0136 64.6167 94.7469 64.55 94.4803 64.45C94.2136 64.35 93.9303 64.2667 93.6303 64.2C93.1303 64.1333 92.6303 64.1667 92.1303 64.3C91.6636 64.4667 91.1803 64.5 90.6803 64.4C90.4803 64.3667 90.2803 64.3167 90.0803 64.25C89.8803 64.1833 89.6636 64.1167 89.4303 64.05C89.3636 64.0167 89.2636 63.9833 89.1303 63.95C89.0303 63.9167 88.9469 63.8833 88.8803 63.85C88.7136 63.7167 88.5303 63.6167 88.3303 63.55C88.1303 63.5167 87.9136 63.4833 87.6803 63.45C87.4803 63.4167 87.2803 63.35 87.0803 63.25C86.9136 63.1833 86.7303 63.1 86.5303 63C86.4636 62.8667 86.3969 62.7833 86.3303 62.75C86.3303 62.6833 86.3136 62.6 86.2803 62.5C86.2803 62.4333 86.2969 62.3667 86.3303 62.3C86.3969 61.9333 86.4303 61.5833 86.4303 61.25C86.4636 60.9167 86.4136 60.5833 86.2803 60.25C86.2469 60.15 86.2303 60.05 86.2303 59.95C86.2636 59.85 86.2803 59.75 86.2803 59.65C86.3469 59.45 86.3636 59.25 86.3303 59.05C86.3303 58.85 86.3636 58.65 86.4303 58.45C86.4969 58.2167 86.5136 58 86.4803 57.8C86.4469 57.5667 86.3969 57.35 86.3303 57.15C86.2969 57.0167 86.2636 56.8667 86.2303 56.7C86.2303 56.5333 86.2303 56.3833 86.2303 56.25C86.2969 56.1833 86.3469 56.1333 86.3803 56.1C86.4469 56.0333 86.4969 56 86.5303 56C86.7636 55.9333 87.0136 55.8833 87.2803 55.85C87.5469 55.8167 87.7969 55.7833 88.0303 55.75C88.2636 55.6833 88.4803 55.5833 88.6803 55.45C88.9136 55.3167 89.1636 55.2833 89.4303 55.35C89.6969 55.3833 89.9303 55.4667 90.1303 55.6C90.3636 55.7 90.5969 55.7833 90.8303 55.85C91.0969 55.95 91.3469 56.0333 91.5803 56.1C91.8469 56.1667 92.0969 56.2333 92.3303 56.3C92.3969 56.3333 92.4469 56.35 92.4803 56.35C92.5469 56.35 92.5969 56.3667 92.6303 56.4C92.8969 56.6333 93.1803 56.8 93.4803 56.9C93.7803 56.9667 94.0803 57.0833 94.3803 57.25C95.1469 57.2833 95.8636 57.2667 96.5303 57.2C97.2303 57.1333 97.8969 56.9833 98.5303 56.75C98.6969 56.6833 98.8303 56.65 98.9303 56.65C99.0636 56.65 99.1969 56.6333 99.3303 56.6C99.7303 56.5667 100.014 56.6 100.18 56.7C100.347 56.8 100.497 57.0833 100.63 57.55C100.697 57.8167 100.747 58.0833 100.78 58.35C100.814 58.6167 100.847 58.9 100.88 59.2ZM137.309 32.05C137.376 32.3167 137.376 32.5833 137.309 32.85C137.243 33.0833 137.226 33.3167 137.259 33.55C137.326 34.15 137.293 34.7333 137.159 35.3C137.026 35.8667 136.959 36.4333 136.959 37C136.893 37.6667 136.593 38.15 136.059 38.45C135.693 38.4833 135.326 38.4667 134.959 38.4C134.626 38.3333 134.276 38.2833 133.909 38.25C133.609 38.0833 133.293 38 132.959 38C132.659 37.9667 132.326 37.9333 131.959 37.9C131.626 37.8333 131.343 37.7 131.109 37.5C131.076 37.1333 131.026 36.7667 130.959 36.4C130.926 36 130.893 35.6 130.859 35.2C130.859 34.5667 130.893 33.95 130.959 33.35C131.026 32.7167 131.109 32.0833 131.209 31.45C131.276 31.1833 131.426 30.9667 131.659 30.8C131.926 30.6 132.209 30.5333 132.509 30.6C132.776 30.7 133.059 30.7333 133.359 30.7C133.659 30.6333 133.943 30.5667 134.209 30.5C134.509 30.5333 134.793 30.6 135.059 30.7C135.326 30.7667 135.609 30.8 135.909 30.8C135.976 30.8 136.043 30.8167 136.109 30.85C136.176 30.85 136.259 30.8667 136.359 30.9C136.626 30.9667 136.876 31.15 137.109 31.45C137.143 31.5833 137.176 31.7 137.209 31.8C137.243 31.8667 137.276 31.95 137.309 32.05ZM146.009 32.6C145.976 32.8333 145.926 33.0667 145.859 33.3C145.793 33.5 145.743 33.7 145.709 33.9C145.676 34.1333 145.643 34.3833 145.609 34.65C145.609 34.8833 145.609 35.1333 145.609 35.4C145.576 35.5333 145.576 35.6833 145.609 35.85C145.643 36.0167 145.659 36.1833 145.659 36.35C145.693 36.4833 145.693 36.6333 145.659 36.8C145.659 36.9667 145.676 37.1333 145.709 37.3C145.776 37.5333 145.793 37.75 145.759 37.95C145.726 38.15 145.609 38.3333 145.409 38.5C145.376 38.5333 145.359 38.6 145.359 38.7C145.393 38.8 145.393 38.8833 145.359 38.95C145.293 39.0833 145.226 39.15 145.159 39.15C144.993 39.1833 144.826 39.2167 144.659 39.25C144.493 39.2833 144.326 39.3167 144.159 39.35C144.026 39.3833 143.909 39.4333 143.809 39.5C143.709 39.5667 143.609 39.6167 143.509 39.65C143.143 39.6833 142.826 39.65 142.559 39.55C142.293 39.4167 142.026 39.2667 141.759 39.1C141.593 39.1333 141.426 39.1667 141.259 39.2C141.093 39.2 140.926 39.1833 140.759 39.15C140.493 39.1167 140.209 39.0833 139.909 39.05C139.609 38.9833 139.326 38.8667 139.059 38.7C138.959 38.6667 138.859 38.6167 138.759 38.55C138.693 38.4833 138.609 38.4167 138.509 38.35C138.443 38.15 138.393 37.9667 138.359 37.8C138.359 37.6333 138.359 37.4833 138.359 37.35C138.426 37.05 138.559 36.8167 138.759 36.65C138.959 36.4833 139.076 36.2 139.109 35.8C139.076 35.4333 139.043 34.9833 139.009 34.45C138.976 33.9167 138.993 33.3833 139.059 32.85C139.226 32.5167 139.426 32.2167 139.659 31.95C139.893 31.6833 140.026 31.3833 140.059 31.05C140.226 30.9833 140.359 30.9 140.459 30.8C140.593 30.7 140.709 30.6333 140.809 30.6C140.943 30.6333 141.059 30.65 141.159 30.65C141.493 30.8833 141.809 31.0167 142.109 31.05C142.376 31.0833 142.659 31.15 142.959 31.25C143.259 31.3167 143.543 31.3333 143.809 31.3C143.976 31.3 144.126 31.3333 144.259 31.4C144.393 31.4667 144.526 31.55 144.659 31.65C144.793 31.6167 144.926 31.6 145.059 31.6C145.559 31.5333 145.859 31.5667 145.959 31.7C146.093 31.8333 146.109 32.1333 146.009 32.6ZM144.559 44.6C144.526 44.6667 144.493 44.7333 144.459 44.8C144.459 44.8667 144.443 44.95 144.409 45.05C143.876 45.9833 143.609 47.05 143.609 48.25C143.609 48.35 143.576 48.5 143.509 48.7C143.443 49 143.343 49.2 143.209 49.3C142.943 49.4333 142.693 49.6167 142.459 49.85C142.259 50.05 142.059 50.2333 141.859 50.4C141.559 50.5333 141.259 50.5667 140.959 50.5C140.493 50.4 140.009 50.3333 139.509 50.3C139.043 50.2667 138.576 50.1833 138.109 50.05C138.009 50.0833 137.909 50.1333 137.809 50.2C137.743 50.2333 137.676 50.2833 137.609 50.35C137.443 50.45 137.259 50.6667 137.059 51C137.126 51.1 137.176 51.2 137.209 51.3C137.276 51.4 137.326 51.5 137.359 51.6C137.259 51.8333 137.143 52.0667 137.009 52.3C136.876 52.5 136.743 52.7 136.609 52.9C136.509 53.1 136.393 53.3 136.259 53.5C136.159 53.6667 136.043 53.8667 135.909 54.1C135.876 54.4 135.793 54.7 135.659 55C135.559 55.3 135.393 55.5833 135.159 55.85C134.893 56.15 134.676 56.5 134.509 56.9C134.343 57.3 134.093 57.6333 133.759 57.9C133.626 58.1333 133.476 58.3667 133.309 58.6C133.143 58.8333 133.026 59.0833 132.959 59.35C132.926 59.4833 132.859 59.6167 132.759 59.75C132.693 59.85 132.626 59.9667 132.559 60.1C132.459 60.2333 132.359 60.35 132.259 60.45C132.193 60.5167 132.093 60.6167 131.959 60.75C131.893 60.8167 131.809 60.85 131.709 60.85C131.409 60.8833 131.143 61 130.909 61.2C130.709 61.4 130.476 61.5167 130.209 61.55C130.076 61.5833 129.943 61.6167 129.809 61.65C129.709 61.65 129.626 61.6833 129.559 61.75C129.326 61.95 129.059 62.1 128.759 62.2C128.459 62.3333 128.176 62.4667 127.909 62.6C127.809 62.6333 127.709 62.6667 127.609 62.7C127.509 62.7333 127.409 62.7833 127.309 62.85C126.909 63.1167 126.493 63.2667 126.059 63.3C125.893 63.3333 125.726 63.3667 125.559 63.4C125.393 63.4667 125.243 63.5167 125.109 63.55C124.809 63.55 124.509 63.4833 124.209 63.35C123.943 63.25 123.676 63.2667 123.409 63.4C123.076 63.3 122.759 63.2 122.459 63.1C122.193 63 121.909 62.9333 121.609 62.9C120.943 62.8667 120.409 62.6 120.009 62.1C119.809 62.1 119.676 62.1167 119.609 62.15C119.376 62.1167 119.176 62.0167 119.009 61.85C118.876 61.65 118.693 61.5333 118.459 61.5C118.259 61.4 118.076 61.2833 117.909 61.15C117.743 61.0167 117.576 60.9 117.409 60.8C117.343 60.6667 117.276 60.5667 117.209 60.5C117.143 60.4 117.076 60.2833 117.009 60.15C116.843 60.0833 116.659 60.0167 116.459 59.95C116.259 59.85 116.076 59.7667 115.909 59.7C115.809 59.6333 115.693 59.5667 115.559 59.5C115.459 59.4 115.376 59.3333 115.309 59.3C115.176 59.0333 115.093 58.8 115.059 58.6C115.026 58.3667 114.993 58.1167 114.959 57.85C115.026 57.8167 115.076 57.7833 115.109 57.75C115.176 57.7167 115.243 57.6833 115.309 57.65C115.509 57.45 115.509 57.2667 115.309 57.1C115.209 57.0333 115.109 56.9833 115.009 56.95C114.909 56.9167 114.809 56.8833 114.709 56.85C114.843 56.55 114.876 56.2667 114.809 56C114.776 55.7333 114.709 55.4667 114.609 55.2C114.576 55.0667 114.509 54.9333 114.409 54.8C114.343 54.6333 114.276 54.4833 114.209 54.35C114.243 54.1833 114.259 54.05 114.259 53.95C114.293 53.85 114.326 53.7333 114.359 53.6C114.326 53.4333 114.276 53.2667 114.209 53.1C114.176 52.9 114.159 52.7 114.159 52.5C114.226 52.1333 114.226 51.7833 114.159 51.45C114.093 51.0833 114.076 50.7333 114.109 50.4V48.9C114.143 48.6333 114.176 48.3833 114.209 48.15C114.276 47.8833 114.276 47.6333 114.209 47.4C114.343 47.0333 114.426 46.6833 114.459 46.35C114.526 45.9833 114.626 45.6333 114.759 45.3C114.859 45.2 114.859 45.1 114.759 45C114.659 44.8667 114.526 44.8 114.359 44.8C114.326 44.8 114.276 44.8 114.209 44.8C114.176 44.7667 114.126 44.7667 114.059 44.8C113.693 44.8333 113.326 44.85 112.959 44.85C112.593 44.85 112.226 44.85 111.859 44.85C111.759 44.8833 111.676 44.9333 111.609 45C111.543 45.0333 111.476 45.0667 111.409 45.1C110.876 45.1 110.343 45.1 109.809 45.1C109.276 45.1 108.743 44.9833 108.209 44.75C108.076 44.5833 107.959 44.4 107.859 44.2C107.793 44 107.709 43.7833 107.609 43.55C107.576 43.25 107.593 42.9667 107.659 42.7C107.726 42.4 107.759 42.0833 107.759 41.75C107.793 41.4833 107.793 41.2167 107.759 40.95C107.759 40.65 107.759 40.3833 107.759 40.15C107.859 39.9833 107.959 39.8333 108.059 39.7C108.159 39.5333 108.259 39.3833 108.359 39.25C108.493 39.0167 108.609 38.7667 108.709 38.5C108.809 38.2 108.843 37.9333 108.809 37.7C108.809 37.3333 108.893 37.0333 109.059 36.8C109.226 36.5667 109.409 36.3667 109.609 36.2C109.876 36.1 110.143 36.0667 110.409 36.1C110.709 36.1 110.976 36.0667 111.209 36C111.443 35.9333 111.693 35.9167 111.959 35.95C112.226 35.9833 112.476 36 112.709 36H114.109C114.343 36 114.576 36.0167 114.809 36.05C115.043 36.0833 115.276 36.15 115.509 36.25C115.643 36.2167 115.743 36.1833 115.809 36.15C115.876 36.1167 115.959 36.0833 116.059 36.05C116.259 35.9833 116.376 35.9667 116.409 36C116.476 36.0333 116.559 36.1667 116.659 36.4L116.809 36.55C117.209 36.65 117.659 36.65 118.159 36.55C118.259 36.4833 118.359 36.4167 118.459 36.35C118.559 36.25 118.676 36.1333 118.809 36C118.876 36 118.959 36 119.059 36C119.159 35.9667 119.226 35.9667 119.259 36C119.659 36.2333 120.109 36.3333 120.609 36.3C121.176 36.3 121.626 36.5667 121.959 37.1C121.993 37.1333 122.043 37.1667 122.109 37.2C122.176 37.2333 122.226 37.2833 122.259 37.35C122.293 37.35 122.326 37.3667 122.359 37.4C122.426 37.4 122.493 37.4 122.559 37.4C122.859 37.4667 123.009 37.6 123.009 37.8C123.009 38.0333 123.026 38.25 123.059 38.45C123.093 38.65 123.076 38.8667 123.009 39.1C122.909 39.3 122.843 39.5167 122.809 39.75C122.809 39.9833 122.776 40.2 122.709 40.4C122.676 40.5 122.643 40.6167 122.609 40.75C122.576 40.85 122.576 40.95 122.609 41.05C122.676 41.35 122.676 41.6333 122.609 41.9C122.543 42.1667 122.476 42.4333 122.409 42.7C122.409 42.9333 122.359 43.1667 122.259 43.4C122.159 43.6333 122.059 43.8667 121.959 44.1C121.859 44.4333 121.743 44.7667 121.609 45.1C121.509 45.4 121.393 45.7 121.259 46C121.226 46.2 121.176 46.4167 121.109 46.65C121.076 46.8833 121.076 47.1 121.109 47.3C121.109 47.5 121.093 47.6667 121.059 47.8C121.026 47.9667 120.976 48.1333 120.909 48.3C120.843 48.4333 120.809 48.5833 120.809 48.75C120.776 48.8833 120.759 49.05 120.759 49.25C120.759 49.4167 120.743 49.6 120.709 49.8C120.776 50.0333 120.893 50.2667 121.059 50.5C121.226 50.7 121.276 50.9333 121.209 51.2C121.843 51.9333 122.543 52.5167 123.309 52.95C123.509 52.95 123.726 52.9667 123.959 53C124.226 53 124.476 53.0333 124.709 53.1C124.976 53.1333 125.226 53.2 125.459 53.3C125.693 53.4 125.943 53.45 126.209 53.45C126.409 53.3167 126.609 53.1833 126.809 53.05C127.009 52.8833 127.193 52.7 127.359 52.5C127.726 52.1 128.093 51.7 128.459 51.3C128.859 50.9 129.326 50.45 129.859 49.95C129.893 49.85 129.959 49.7 130.059 49.5C130.193 49.3 130.326 49.1 130.459 48.9C130.526 48.6333 130.576 48.3833 130.609 48.15C130.643 47.9167 130.676 47.7 130.709 47.5C130.743 47.2667 130.743 47.05 130.709 46.85C130.709 46.6167 130.709 46.4 130.709 46.2C130.676 45.8333 130.809 45.4667 131.109 45.1C131.076 45 131.026 44.9167 130.959 44.85C130.926 44.75 130.876 44.6333 130.809 44.5C130.976 44.1667 131.226 43.9333 131.559 43.8C131.893 43.6333 132.159 43.3333 132.359 42.9C132.426 42.7333 132.493 42.5333 132.559 42.3C132.626 42.0667 132.693 41.8333 132.759 41.6C132.826 41.4667 132.876 41.3667 132.909 41.3C132.976 41.2 133.026 41.1 133.059 41C133.859 40.8333 134.593 40.85 135.259 41.05C135.459 41.1167 135.659 41.1333 135.859 41.1C136.059 41.0667 136.276 41.0333 136.509 41C136.709 41.1333 136.926 41.25 137.159 41.35C137.393 41.45 137.626 41.55 137.859 41.65C138.059 41.7167 138.259 41.8 138.459 41.9C138.693 41.9667 138.926 42.05 139.159 42.15C139.426 42.0833 139.709 42.05 140.009 42.05C140.309 42.0167 140.609 42.0667 140.909 42.2C141.043 42.2667 141.176 42.3 141.309 42.3C141.476 42.3 141.626 42.3 141.759 42.3C142.059 42.3 142.359 42.3 142.659 42.3C142.993 42.3 143.326 42.3333 143.659 42.4C143.726 42.6333 143.826 42.85 143.959 43.05C144.126 43.25 144.276 43.4333 144.409 43.6C144.609 43.9 144.659 44.2333 144.559 44.6Z" fill="#9A0101"/>
<path d="M10.3438 13.1719C10.1667 13.3854 10.0312 13.5964 9.9375 13.8047C9.875 13.9349 9.82292 14 9.78125 14C9.74479 14 9.6901 13.9479 9.61719 13.8438C9.00781 12.901 8.4974 11.9193 8.08594 10.8984C8.09115 12.7422 8.11198 14.6953 8.14844 16.7578C8.15885 17.237 8.17188 17.8125 8.1875 18.4844C8.19271 18.8021 8.19531 18.9766 8.19531 19.0078C8.19531 19.0911 8.15365 19.1328 8.07031 19.1328H7.26562C7.18229 19.1328 7.14062 19.0911 7.14062 19.0078C7.14062 19.0026 7.15365 18.5677 7.17969 17.7031C7.2526 15.1823 7.29167 12.875 7.29688 10.7812C6.67708 12.6042 5.85156 14.2318 4.82031 15.6641C4.74219 15.7682 4.68229 15.8203 4.64062 15.8203C4.57812 15.8203 4.52604 15.763 4.48438 15.6484C4.38021 15.3932 4.23698 15.1745 4.05469 14.9922C5.1849 13.7057 6.14844 12.0573 6.94531 10.0469H6.39062L4.48438 10.0781C4.41146 10.0781 4.375 10.0365 4.375 9.95312V9.32812C4.375 9.24479 4.41146 9.20312 4.48438 9.20312L6.39062 9.23438H7.20312V6.85156C6.90104 6.9349 6.30469 7.06771 5.41406 7.25C5.29948 7.26562 5.22917 7.27344 5.20312 7.27344C5.11979 7.27344 5.03385 7.1901 4.94531 7.02344C4.82552 6.8151 4.69792 6.65104 4.5625 6.53125C6.31771 6.26042 7.70052 5.88542 8.71094 5.40625C9.02865 5.25 9.26823 5.09635 9.42969 4.94531C9.71615 5.14844 9.94531 5.33594 10.1172 5.50781C10.2109 5.60156 10.2578 5.6901 10.2578 5.77344C10.2578 5.85677 10.1719 5.90625 10 5.92188C9.84896 5.93229 9.61979 6 9.3125 6.125C8.54688 6.42188 8.15885 6.57292 8.14844 6.57812V9.23438H8.22656L10.1328 9.20312C10.2161 9.20312 10.2578 9.24479 10.2578 9.32812V9.95312C10.2578 10.0365 10.2161 10.0781 10.1328 10.0781L8.30469 10.0469C8.8151 11.1042 9.49479 12.1458 10.3438 13.1719ZM18.8203 18.2109C18.6328 18.3307 18.4427 18.5312 18.25 18.8125C18.151 18.9427 18.0859 19.0078 18.0547 19.0078C18.013 19.0078 17.9427 18.9609 17.8438 18.8672C16.6042 17.6797 15.6849 16.362 15.0859 14.9141C14.6224 13.8047 14.3099 12.5234 14.1484 11.0703C14.0286 12.0964 13.8203 13.0729 13.5234 14C12.8255 16.0833 11.6797 17.737 10.0859 18.9609C9.97656 19.0547 9.90104 19.1016 9.85938 19.1016C9.81771 19.1016 9.75 19.0365 9.65625 18.9062C9.51562 18.7135 9.32812 18.5443 9.09375 18.3984C10.2031 17.5911 11.0391 16.7839 11.6016 15.9766C12.1224 15.2266 12.5443 14.2969 12.8672 13.1875C13.3151 11.6406 13.5391 9.5 13.5391 6.76562C13.5391 6.00521 13.5026 5.34896 13.4297 4.79688C13.8411 4.81771 14.1927 4.85677 14.4844 4.91406C14.6146 4.92969 14.6797 4.98177 14.6797 5.07031C14.6797 5.10677 14.6536 5.21875 14.6016 5.40625C14.5339 5.64062 14.5 6.08854 14.5 6.75C14.5 7.35938 14.4948 7.82292 14.4844 8.14062C14.7031 10.7083 15.099 12.6901 15.6719 14.0859C16.3385 15.7005 17.388 17.0755 18.8203 18.2109ZM18.0234 8.32031C18.0234 8.38802 17.987 8.46875 17.9141 8.5625C17.8307 8.67708 17.75 8.89062 17.6719 9.20312C17.3542 10.2917 16.9974 11.2448 16.6016 12.0625C16.5339 12.2135 16.4792 12.2891 16.4375 12.2891C16.4062 12.2891 16.3307 12.2474 16.2109 12.1641C16.0234 12.0391 15.8333 11.9583 15.6406 11.9219C16.151 10.9583 16.5339 9.95052 16.7891 8.89844C16.888 8.4349 16.9375 8.08854 16.9375 7.85938C16.9375 7.82292 16.9375 7.78906 16.9375 7.75781C17.2396 7.86198 17.5208 7.96875 17.7812 8.07812C17.9427 8.15104 18.0234 8.23177 18.0234 8.32031ZM12.0703 8.30469C11.9661 9.89844 11.7005 11.2214 11.2734 12.2734C11.237 12.3568 11.2031 12.3984 11.1719 12.3984C11.151 12.3984 11.0885 12.3724 10.9844 12.3203L10.5469 12.1094C10.4583 12.0677 10.4141 12.0208 10.4141 11.9688C10.4141 11.9479 10.4245 11.9167 10.4453 11.875C10.8828 10.8438 11.125 9.57292 11.1719 8.0625C11.1719 7.98438 11.1927 7.94531 11.2344 7.94531C11.2656 7.94531 11.3307 7.95833 11.4297 7.98438L11.875 8.10938C12.0052 8.14583 12.0703 8.21094 12.0703 8.30469ZM33.3984 18.5469C33.3984 18.6302 33.3568 18.6719 33.2734 18.6719H32.5156C32.4323 18.6719 32.3906 18.6302 32.3906 18.5469V17.5859H22.25V18.5469C22.25 18.6302 22.2083 18.6719 22.125 18.6719H21.3672C21.2839 18.6719 21.2422 18.6302 21.2422 18.5469L21.2734 13.125V10.0625L21.2422 6.0625C21.2422 5.97917 21.2839 5.9375 21.3672 5.9375L23.625 5.96875H31.0156L33.2734 5.9375C33.3568 5.9375 33.3984 5.97917 33.3984 6.0625L33.3672 9.66406V13.125L33.3984 18.5469ZM32.3906 16.6875V12.1172H27.7266V16.6875H32.3906ZM26.7656 16.6875V12.1172H22.25V16.6875H26.7656ZM32.3906 11.25V6.86719H27.7266V11.25H32.3906ZM26.7656 11.25V6.86719H22.25V11.25H26.7656ZM48.1797 12.3203C48.1797 12.4036 48.1094 12.4453 47.9688 12.4453L46.0078 12.4141H42.7734L40.7266 12.4453C40.5964 12.4453 40.5312 12.4036 40.5312 12.3203L40.5625 10.5938V7.25L40.5312 5.51562C40.5312 5.43229 40.5729 5.39062 40.6562 5.39062L42.7109 5.42188H46.0078L48.0391 5.39062C48.1328 5.39062 48.1797 5.43229 48.1797 5.51562L48.1484 7.25V10.5938L48.1797 12.3203ZM47.2188 11.6797V10.2266H41.4766V11.6797H47.2188ZM47.2188 9.53906V8.21094H41.4766V9.53906H47.2188ZM47.2188 7.50781V6.1875H41.4766V7.50781H47.2188ZM50.1328 14.5312C50.1328 14.6146 50.0885 14.6562 50 14.6562L47.8125 14.625H43.9062V17.0859L43.9375 18.9453C43.9375 19.0286 43.8958 19.0703 43.8125 19.0703H42.9922C42.9089 19.0703 42.8672 19.0286 42.8672 18.9453L42.8984 17.0859V14.625H39.7344L37.5234 14.6562C37.4401 14.6562 37.3984 14.6146 37.3984 14.5312L37.4297 12.5234V8.20312C37.4297 7.40104 37.3932 6.82031 37.3203 6.46094C37.6068 6.46094 37.9635 6.49219 38.3906 6.55469C38.5208 6.57552 38.5859 6.61979 38.5859 6.6875C38.5859 6.72917 38.5521 6.83594 38.4844 7.00781C38.4323 7.15365 38.4062 7.54167 38.4062 8.17188V13.7734H47.8125L50 13.7422C50.0885 13.7422 50.1328 13.7839 50.1328 13.8672V14.5312ZM41.2891 15.9844C41.2891 16.0677 41.2135 16.1328 41.0625 16.1797C40.9427 16.2214 40.7943 16.3333 40.6172 16.5156C39.8151 17.3021 38.8646 17.9688 37.7656 18.5156C37.6562 18.5781 37.5755 18.6094 37.5234 18.6094C37.4766 18.6094 37.3984 18.5286 37.2891 18.3672C37.1276 18.1484 36.9557 17.9896 36.7734 17.8906C37.9609 17.4167 38.9427 16.8021 39.7188 16.0469C39.9896 15.776 40.1979 15.5208 40.3438 15.2812C40.6458 15.4323 40.9062 15.5911 41.125 15.7578C41.2344 15.8411 41.2891 15.9167 41.2891 15.9844ZM49.9766 17.7891C49.7734 17.9349 49.6068 18.1172 49.4766 18.3359C49.388 18.4974 49.3073 18.5781 49.2344 18.5781C49.1875 18.5781 49.1094 18.5469 49 18.4844C47.8177 17.8542 46.6849 17 45.6016 15.9219C45.5755 15.8906 45.5625 15.8646 45.5625 15.8438C45.5625 15.8073 45.6146 15.7474 45.7188 15.6641L46.0547 15.4375C46.1484 15.375 46.2135 15.3438 46.25 15.3438C46.276 15.3438 46.3073 15.3594 46.3438 15.3906C47.5052 16.5 48.7161 17.2995 49.9766 17.7891ZM59.9219 7.90625C59.7708 9.34375 59.4844 10.7214 59.0625 12.0391C58.7031 13.1797 58.2865 14.1328 57.8125 14.8984C57.1667 15.9974 56.3828 16.5469 55.4609 16.5469C54.7786 16.5469 54.2109 16.1901 53.7578 15.4766C53.3359 14.8047 53.125 13.9505 53.125 12.9141C53.125 12.1172 53.3073 11.3333 53.6719 10.5625C54 9.875 54.4375 9.27604 54.9844 8.76562C56.25 7.58333 57.849 6.99219 59.7812 6.99219C61.6719 6.99219 63.1354 7.53125 64.1719 8.60938C65.0521 9.52604 65.4922 10.7057 65.4922 12.1484C65.4922 13.5859 65.0208 14.7943 64.0781 15.7734C63.2083 16.6797 61.9844 17.3307 60.4062 17.7266C60.349 17.7422 60.3021 17.75 60.2656 17.75C60.1562 17.75 60.0651 17.6849 59.9922 17.5547C59.8516 17.3255 59.6432 17.1276 59.3672 16.9609C61.0807 16.6224 62.3646 15.987 63.2188 15.0547C63.9792 14.2214 64.3594 13.1875 64.3594 11.9531C64.3594 10.6979 63.9062 9.67969 63 8.89844C62.2292 8.23698 61.3047 7.90625 60.2266 7.90625H59.9219ZM58.8047 7.96875C57.5443 8.13021 56.5052 8.61979 55.6875 9.4375C54.6615 10.4479 54.1484 11.6016 54.1484 12.8984C54.1484 13.7526 54.3099 14.4141 54.6328 14.8828C54.8724 15.2266 55.1432 15.3984 55.4453 15.3984C55.9922 15.3984 56.487 15.0078 56.9297 14.2266C57.4036 13.3984 57.8151 12.3958 58.1641 11.2188C58.4974 10.0885 58.7109 9.00521 58.8047 7.96875ZM82.9062 16.9297C82.8073 17.8151 82.6042 18.3854 82.2969 18.6406C82.0312 18.8438 81.5677 18.9453 80.9062 18.9453C80.2969 18.9453 79.8776 18.8984 79.6484 18.8047C79.3411 18.6641 79.1875 18.3438 79.1875 17.8438V14.125H78.0391C77.8984 15.4792 77.5208 16.5677 76.9062 17.3906C76.3646 18.1198 75.6042 18.6823 74.625 19.0781C74.4844 19.1406 74.3958 19.1719 74.3594 19.1719C74.2917 19.1719 74.2161 19.1068 74.1328 18.9766C73.9766 18.7526 73.7943 18.5859 73.5859 18.4766C75.763 17.9141 76.9375 16.4635 77.1094 14.125C76.7708 14.1354 76.4688 14.1458 76.2031 14.1562C76.026 14.1615 75.9323 14.1641 75.9219 14.1641C75.8385 14.1641 75.7969 14.1224 75.7969 14.0391L75.8281 12.0469V7.57812L75.7969 5.61719C75.7969 5.53385 75.8385 5.49219 75.9219 5.49219L77.6875 5.52344H79.7812L81.5625 5.49219C81.6458 5.49219 81.6875 5.53385 81.6875 5.61719L81.6562 7.57812V12.0469L81.6875 14.0391C81.6875 14.1224 81.6458 14.1641 81.5625 14.1641C81.5573 14.1641 81.4089 14.1589 81.1172 14.1484C80.8099 14.1432 80.4661 14.1354 80.0859 14.125V17.4688C80.0859 17.6771 80.1016 17.8125 80.1328 17.875C80.1641 17.9375 80.224 17.9844 80.3125 18.0156C80.4167 18.0573 80.6354 18.0781 80.9688 18.0781C81.3385 18.0781 81.5885 18.0182 81.7188 17.8984C81.9167 17.7422 82.0339 17.1562 82.0703 16.1406C82.237 16.3229 82.4505 16.4688 82.7109 16.5781C82.8411 16.6302 82.9062 16.7083 82.9062 16.8125C82.9062 16.8281 82.9062 16.8672 82.9062 16.9297ZM80.7578 13.3125V11.4062H76.7266V13.3125H80.7578ZM80.7578 8.09375V6.35156H76.7266V8.09375H80.7578ZM80.7578 10.625V8.875H76.7266V10.625H80.7578ZM75.2578 9.15625C75.2578 9.23958 75.2135 9.28125 75.125 9.28125L73.1562 9.25H71.6094C71.2812 9.96875 70.9271 10.5755 70.5469 11.0703H72.1172C72.2786 10.7682 72.375 10.5703 72.4062 10.4766C72.5208 10.1797 72.5911 9.91406 72.6172 9.67969C72.8828 9.72135 73.138 9.78125 73.3828 9.85938C73.4974 9.89062 73.5547 9.9375 73.5547 10C73.5547 10.0573 73.5182 10.1172 73.4453 10.1797C73.3828 10.2318 73.3229 10.3099 73.2656 10.4141C73.1771 10.6224 73.0677 10.8411 72.9375 11.0703H73.3828L74.8672 11.0391C74.9557 11.0391 75 11.0807 75 11.1641V11.6641C75 11.7474 74.9557 11.7891 74.8672 11.7891L73.3828 11.7578H72.8516V13.0391H72.9688L74.6016 13.0078C74.6849 13.0078 74.7266 13.0495 74.7266 13.1328V13.6328C74.7266 13.7161 74.6849 13.7578 74.6016 13.7578L72.9688 13.7266H72.8516V15.0078H72.9531L74.5859 14.9766C74.6589 14.9766 74.6953 15.0182 74.6953 15.1016V15.6016C74.6953 15.6849 74.6589 15.7266 74.5859 15.7266L72.9531 15.6953H72.8516V17.0859H72.9844L74.6484 17.0547C74.7318 17.0547 74.7734 17.0964 74.7734 17.1797V17.6797C74.7734 17.763 74.7318 17.8047 74.6484 17.8047L72.9844 17.7734H70.25V18.7188C70.25 18.8177 70.2005 18.8672 70.1016 18.8672H69.5078C69.4245 18.8672 69.3828 18.8281 69.3828 18.75L69.4141 17.2812V12.4141C69.112 12.7161 68.7865 13.0104 68.4375 13.2969C68.3281 13.3906 68.2526 13.4375 68.2109 13.4375C68.1693 13.4375 68.1172 13.3672 68.0547 13.2266C67.9661 13.0495 67.8438 12.8906 67.6875 12.75C69.0781 11.8021 70.0911 10.6354 70.7266 9.25H70.1953L68.2266 9.28125C68.1536 9.28125 68.1172 9.23958 68.1172 9.15625V8.57812C68.1172 8.48958 68.1536 8.44531 68.2266 8.44531L70.1953 8.48438H71.0312C71.224 7.93229 71.3776 7.39062 71.4922 6.85938H70.0703C69.8255 7.23958 69.5547 7.60156 69.2578 7.94531C69.1536 8.0651 69.0833 8.125 69.0469 8.125C69.0156 8.125 68.9349 8.07812 68.8047 7.98438C68.6536 7.88021 68.4896 7.79948 68.3125 7.74219C68.901 7.15365 69.4115 6.46094 69.8438 5.66406C70.0104 5.35677 70.1328 5.01042 70.2109 4.625C70.5599 4.71354 70.8385 4.79427 71.0469 4.86719C71.1406 4.89844 71.1875 4.96094 71.1875 5.05469C71.1875 5.10156 71.1406 5.17188 71.0469 5.26562C70.9479 5.34896 70.8203 5.54688 70.6641 5.85938L70.5156 6.125H72.9688L74.6797 6.09375C74.763 6.09375 74.8047 6.13542 74.8047 6.21875V6.76562C74.8047 6.84896 74.763 6.89062 74.6797 6.89062L72.9688 6.85938H72.3906C72.2552 7.42188 72.0964 7.96354 71.9141 8.48438H73.1562L75.125 8.44531C75.2135 8.44531 75.2578 8.48958 75.2578 8.57812V9.15625ZM72.0547 17.0859V15.6953H70.25V17.0859H72.0547ZM72.0547 13.0391V11.7578H70.25V13.0391H72.0547ZM72.0547 15.0078V13.7266H70.25V15.0078H72.0547ZM98.2188 11.5703C98.2188 11.6641 98.1823 11.7109 98.1094 11.7109L95.9922 11.6797H93.1016V16.4766C93.1016 16.9089 93.1068 17.1745 93.1172 17.2734C93.138 17.4297 93.1901 17.5521 93.2734 17.6406C93.4141 17.8125 93.9115 17.8984 94.7656 17.8984C95.7135 17.8984 96.3307 17.7552 96.6172 17.4688C96.9245 17.1615 97.0859 16.474 97.1016 15.4062C97.2109 15.5208 97.4349 15.6328 97.7734 15.7422C97.9557 15.7943 98.0469 15.8568 98.0469 15.9297C98.0469 15.9505 98.0417 16 98.0312 16.0781C97.9583 17.099 97.7396 17.7917 97.375 18.1562C97.1094 18.4167 96.776 18.5938 96.375 18.6875C95.9844 18.7812 95.4323 18.8281 94.7188 18.8281C93.9948 18.8281 93.4635 18.7891 93.125 18.7109C92.8229 18.6432 92.6016 18.5286 92.4609 18.3672C92.3047 18.1953 92.2031 17.9635 92.1562 17.6719C92.125 17.4479 92.1094 17.0833 92.1094 16.5781V11.6797H89.8984C89.862 13.6641 89.4401 15.2474 88.6328 16.4297C87.8464 17.5807 86.6589 18.4193 85.0703 18.9453C84.9193 18.987 84.8385 19.0078 84.8281 19.0078C84.776 19.0078 84.6953 18.9167 84.5859 18.7344C84.4453 18.5156 84.2812 18.3359 84.0938 18.1953C85.8802 17.7109 87.151 16.8724 87.9062 15.6797C88.5365 14.6849 88.8594 13.3516 88.875 11.6797H86.7344L84.625 11.7109C84.5365 11.7109 84.4922 11.6641 84.4922 11.5703V10.8594C84.4922 10.776 84.5365 10.7344 84.625 10.7344L86.7344 10.7656H90.6719V6.64062C90.6719 5.81771 90.638 5.21354 90.5703 4.82812C90.9714 4.84375 91.3281 4.8776 91.6406 4.92969C91.7708 4.94531 91.8359 4.9974 91.8359 5.08594C91.8359 5.13802 91.7995 5.23958 91.7266 5.39062C91.6745 5.52083 91.6484 5.9375 91.6484 6.64062V10.7656H95.9922L98.1094 10.7344C98.1823 10.7344 98.2188 10.776 98.2188 10.8594V11.5703ZM96.5703 6.46875C96.5703 6.52604 96.526 6.58854 96.4375 6.65625C96.375 6.70833 96.2917 6.82552 96.1875 7.00781C95.6094 8.09115 95.013 9.01302 94.3984 9.77344C94.2995 9.90365 94.224 9.96875 94.1719 9.96875C94.1302 9.96875 94.0495 9.92708 93.9297 9.84375C93.7266 9.71354 93.5286 9.6224 93.3359 9.57031C94.2214 8.48698 94.8776 7.47396 95.3047 6.53125C95.4089 6.31771 95.4844 6.10417 95.5312 5.89062C95.8958 6.03125 96.2031 6.17448 96.4531 6.32031C96.5312 6.35677 96.5703 6.40625 96.5703 6.46875ZM88.7969 9.14062C88.8125 9.17188 88.8203 9.19531 88.8203 9.21094C88.8203 9.24219 88.7526 9.29167 88.6172 9.35938L88.1562 9.61719C88.0521 9.67448 87.9844 9.70312 87.9531 9.70312C87.9219 9.70312 87.8932 9.66927 87.8672 9.60156C87.4193 8.46094 86.8281 7.41667 86.0938 6.46875C86.0677 6.4375 86.0547 6.41146 86.0547 6.39062C86.0547 6.35417 86.1146 6.30469 86.2344 6.24219L86.7031 6C86.7917 5.95312 86.8464 5.92969 86.8672 5.92969C86.8932 5.92969 86.9219 5.95312 86.9531 6C87.75 7.05729 88.3646 8.10417 88.7969 9.14062ZM110.484 9.24219H111.062C112.203 9.24219 113.068 9.22656 113.656 9.19531C113.781 9.19531 113.844 9.26042 113.844 9.39062C113.854 9.5 113.859 9.61198 113.859 9.72656C113.859 9.84115 113.854 9.95573 113.844 10.0703C113.844 10.2005 113.794 10.2656 113.695 10.2656C113.669 10.2656 113.651 10.2656 113.641 10.2656C113.312 10.2552 112.896 10.25 112.391 10.25H111.078H110.469C110.422 12.4167 110.044 14.1016 109.336 15.3047C108.565 16.6589 107.253 17.6823 105.398 18.375C105.263 18.4323 105.177 18.4609 105.141 18.4609C105.089 18.4609 105.031 18.4271 104.969 18.3594C104.74 18.1042 104.461 17.9036 104.133 17.7578C106.237 17.0911 107.667 16.099 108.422 14.7812C109.042 13.6719 109.367 12.1615 109.398 10.25H105.32V11.0312C105.32 11.9219 105.336 12.7865 105.367 13.625C105.367 13.7396 105.302 13.7969 105.172 13.7969C105.073 13.8073 104.943 13.8125 104.781 13.8125C104.62 13.8125 104.484 13.8073 104.375 13.7969C104.245 13.7969 104.18 13.7344 104.18 13.6094C104.227 12.5365 104.25 11.6901 104.25 11.0703V10.25H103.43C102.706 10.25 101.885 10.2708 100.969 10.3125C100.948 10.3125 100.935 10.3125 100.93 10.3125C100.862 10.3125 100.815 10.237 100.789 10.0859C100.768 9.9349 100.747 9.63281 100.727 9.17969C101.466 9.22135 102.367 9.24219 103.43 9.24219H104.25V7.92969C104.25 6.90365 104.19 6.11979 104.07 5.57812C104.586 5.60938 105.018 5.67448 105.367 5.77344C105.477 5.79948 105.531 5.85677 105.531 5.94531C105.531 6.00781 105.503 6.09896 105.445 6.21875C105.362 6.39062 105.32 6.96094 105.32 7.92969V9.24219H109.398L109.414 7.82031C109.414 6.66927 109.367 5.83333 109.273 5.3125C109.826 5.375 110.227 5.44271 110.477 5.51562C110.617 5.55208 110.688 5.625 110.688 5.73438C110.688 5.79167 110.669 5.86198 110.633 5.94531C110.544 6.16927 110.5 6.77865 110.5 7.77344L110.484 9.24219ZM124.078 9.53906V15.3594C124.078 16.2656 124.094 17.2318 124.125 18.2578C124.13 18.2734 124.133 18.2891 124.133 18.3047C124.133 18.3984 124.078 18.4453 123.969 18.4453C123.818 18.4557 123.661 18.4609 123.5 18.4609C123.344 18.4609 123.19 18.4557 123.039 18.4453C122.935 18.4453 122.883 18.3828 122.883 18.2578C122.924 16.9974 122.945 16.0469 122.945 15.4062V10.5469C121.445 11.875 119.771 13.0781 117.922 14.1562C117.865 14.1875 117.812 14.2031 117.766 14.2031C117.693 14.2031 117.62 14.1667 117.547 14.0938C117.38 13.9271 117.115 13.7578 116.75 13.5859C118.661 12.5391 120.32 11.4141 121.727 10.2109C122.987 9.13281 124.021 8.10156 124.828 7.11719C125.432 6.38802 125.799 5.78646 125.93 5.3125C126.461 5.58854 126.828 5.82812 127.031 6.03125C127.104 6.09896 127.141 6.17188 127.141 6.25C127.141 6.34896 127.083 6.42708 126.969 6.48438C126.776 6.57812 126.479 6.85938 126.078 7.32812C125.427 8.11458 124.76 8.85156 124.078 9.53906ZM137.898 10.0781C139.773 10.6146 141.51 11.3568 143.109 12.3047C143.203 12.3464 143.25 12.401 143.25 12.4688C143.25 12.4948 143.242 12.526 143.227 12.5625C143.112 12.849 142.984 13.1094 142.844 13.3438C142.781 13.4219 142.727 13.4609 142.68 13.4609C142.643 13.4609 142.596 13.4427 142.539 13.4062C141.07 12.4427 139.518 11.7292 137.883 11.2656V14.9766C137.883 15.3828 137.888 15.9557 137.898 16.6953C137.914 17.6276 137.922 18.1432 137.922 18.2422C137.927 18.263 137.93 18.2812 137.93 18.2969C137.93 18.3958 137.859 18.4453 137.719 18.4453C137.609 18.4557 137.477 18.4609 137.32 18.4609C137.159 18.4609 137.021 18.4557 136.906 18.4453C136.755 18.4453 136.68 18.3724 136.68 18.2266C136.727 17.3099 136.75 16.2266 136.75 14.9766V7.875C136.75 6.73438 136.69 5.88021 136.57 5.3125C137.201 5.36458 137.641 5.4349 137.891 5.52344C138.016 5.54948 138.078 5.61198 138.078 5.71094C138.078 5.76302 138.055 5.85938 138.008 6C137.935 6.20833 137.898 6.79948 137.898 7.77344V10.0781Z" fill="#9A0101"/>
</svg>
