<svg width="28" height="28" viewBox="0 0 28 28" fill="none" xmlns="http://www.w3.org/2000/svg">
<g clip-path="url(#clip0_2098_37)">
<path fill-rule="evenodd" clip-rule="evenodd" d="M18.3248 13.1751C18.5436 13.3939 18.6664 13.6906 18.6664 14C18.6664 14.3093 18.5436 14.606 18.3248 14.8248L11.725 21.4246C11.6174 21.5361 11.4887 21.6249 11.3463 21.6861C11.204 21.7472 11.0509 21.7794 10.896 21.7808C10.7411 21.7821 10.5874 21.7526 10.4441 21.6939C10.3007 21.6353 10.1704 21.5486 10.0609 21.4391C9.95134 21.3296 9.86472 21.1993 9.80605 21.0559C9.74739 20.9125 9.71788 20.7589 9.71922 20.604C9.72057 20.4491 9.75275 20.296 9.8139 20.1537C9.87504 20.0113 9.96392 19.8826 10.0753 19.775L15.8503 14L10.0753 8.22497C9.86283 8.00493 9.74524 7.71023 9.74789 7.40433C9.75055 7.09844 9.87325 6.80582 10.0896 6.58951C10.3059 6.3732 10.5985 6.2505 10.9044 6.24785C11.2103 6.24519 11.505 6.36278 11.725 6.5753L18.3248 13.1751Z" fill="#9A0101"/>
</g>
<defs>
<clipPath id="clip0_2098_37">
<rect width="28" height="28" fill="white"/>
</clipPath>
</defs>
</svg>
