<svg width="35" height="35" viewBox="0 0 35 35" fill="none" xmlns="http://www.w3.org/2000/svg">
<path d="M17.5 2.91675C9.47917 2.91675 2.91667 9.47925 2.91667 17.5001C2.91667 25.5209 9.47917 32.0834 17.5 32.0834C25.5208 32.0834 32.0833 25.5209 32.0833 17.5001C32.0833 9.47925 25.5208 2.91675 17.5 2.91675ZM22.6771 23.0417L16.7271 19.3813C16.2896 19.1188 16.0271 18.6522 16.0271 18.1417V11.3022C16.0417 10.7042 16.5375 10.2084 17.1354 10.2084C17.7333 10.2084 18.2292 10.7042 18.2292 11.3022V17.7917L23.8292 21.1605C24.3542 21.4813 24.5292 22.1667 24.2083 22.6917C23.8875 23.2022 23.2021 23.3626 22.6771 23.0417Z" fill="#5F9A01"/>
</svg>
